<mxfile host="www.draw.io" modified="2019-11-04T13:43:06.159Z" agent="Mozilla/5.0 (Macintosh; Intel Mac OS X 10_13_6) AppleWebKit/537.36 (KHTML, like Gecko) Chrome/78.0.3904.70 Safari/537.36" etag="gztwclJ1yJVAmcXZ2j6G" version="12.1.9" type="github" pages="7">
  <diagram id="3zsWWzIFYtMCB39Upx3M" name="Array">
    <mxGraphModel dx="953" dy="524" grid="1" gridSize="10" guides="1" tooltips="1" connect="1" arrows="1" fold="1" page="1" pageScale="1" pageWidth="827" pageHeight="1169" math="0" shadow="0">
      <root>
        <mxCell id="0"/>
        <mxCell id="1" parent="0"/>
        <mxCell id="kyZIP-bJGwQKnWlVnqis-3" style="edgeStyle=orthogonalEdgeStyle;rounded=0;orthogonalLoop=1;jettySize=auto;html=1;exitX=1;exitY=0.25;exitDx=0;exitDy=0;entryX=0;entryY=0.5;entryDx=0;entryDy=0;dashed=1;" parent="1" source="hTQzxeohMcgxq5HyWSMG-1" target="hTQzxeohMcgxq5HyWSMG-2" edge="1">
          <mxGeometry relative="1" as="geometry">
            <Array as="points">
              <mxPoint x="150" y="235"/>
              <mxPoint x="150" y="50"/>
            </Array>
          </mxGeometry>
        </mxCell>
        <mxCell id="kyZIP-bJGwQKnWlVnqis-4" style="edgeStyle=orthogonalEdgeStyle;rounded=0;orthogonalLoop=1;jettySize=auto;html=1;exitX=1;exitY=0.25;exitDx=0;exitDy=0;entryX=0;entryY=0.5;entryDx=0;entryDy=0;dashed=1;" parent="1" source="hTQzxeohMcgxq5HyWSMG-1" target="hTQzxeohMcgxq5HyWSMG-4" edge="1">
          <mxGeometry relative="1" as="geometry"/>
        </mxCell>
        <mxCell id="kyZIP-bJGwQKnWlVnqis-5" style="edgeStyle=orthogonalEdgeStyle;rounded=0;orthogonalLoop=1;jettySize=auto;html=1;exitX=1;exitY=0.5;exitDx=0;exitDy=0;entryX=0;entryY=0.5;entryDx=0;entryDy=0;dashed=1;" parent="1" source="hTQzxeohMcgxq5HyWSMG-1" target="hTQzxeohMcgxq5HyWSMG-3" edge="1">
          <mxGeometry relative="1" as="geometry"/>
        </mxCell>
        <mxCell id="kyZIP-bJGwQKnWlVnqis-6" style="edgeStyle=orthogonalEdgeStyle;rounded=0;orthogonalLoop=1;jettySize=auto;html=1;exitX=1;exitY=0.75;exitDx=0;exitDy=0;entryX=0;entryY=0.5;entryDx=0;entryDy=0;dashed=1;" parent="1" source="hTQzxeohMcgxq5HyWSMG-1" target="kyZIP-bJGwQKnWlVnqis-1" edge="1">
          <mxGeometry relative="1" as="geometry"/>
        </mxCell>
        <mxCell id="IlRY-WLdl9bS0oWDxXhX-8" style="edgeStyle=orthogonalEdgeStyle;rounded=0;orthogonalLoop=1;jettySize=auto;html=1;exitX=1;exitY=0.75;exitDx=0;exitDy=0;entryX=0;entryY=0.5;entryDx=0;entryDy=0;dashed=1;" parent="1" source="hTQzxeohMcgxq5HyWSMG-1" target="IlRY-WLdl9bS0oWDxXhX-5" edge="1">
          <mxGeometry relative="1" as="geometry">
            <Array as="points">
              <mxPoint x="150" y="265"/>
              <mxPoint x="150" y="460"/>
            </Array>
          </mxGeometry>
        </mxCell>
        <mxCell id="Uk0Fr8hHIJnlOthwViEP-1" style="edgeStyle=orthogonalEdgeStyle;rounded=0;orthogonalLoop=1;jettySize=auto;html=1;exitX=1;exitY=0.75;exitDx=0;exitDy=0;entryX=0;entryY=0.5;entryDx=0;entryDy=0;dashed=1;" parent="1" source="hTQzxeohMcgxq5HyWSMG-1" target="IlRY-WLdl9bS0oWDxXhX-26" edge="1">
          <mxGeometry relative="1" as="geometry">
            <Array as="points">
              <mxPoint x="160" y="265"/>
              <mxPoint x="160" y="700"/>
            </Array>
          </mxGeometry>
        </mxCell>
        <mxCell id="hTQzxeohMcgxq5HyWSMG-1" value="Array" style="rounded=1;whiteSpace=wrap;html=1;" parent="1" vertex="1">
          <mxGeometry x="80" y="220" width="60" height="60" as="geometry"/>
        </mxCell>
        <mxCell id="IlRY-WLdl9bS0oWDxXhX-21" style="edgeStyle=orthogonalEdgeStyle;rounded=0;orthogonalLoop=1;jettySize=auto;html=1;exitX=1;exitY=0.5;exitDx=0;exitDy=0;dashed=1;" parent="1" source="hTQzxeohMcgxq5HyWSMG-2" target="IlRY-WLdl9bS0oWDxXhX-2" edge="1">
          <mxGeometry relative="1" as="geometry"/>
        </mxCell>
        <mxCell id="10_IyARQiNd5ybZHdDWF-4" style="edgeStyle=orthogonalEdgeStyle;rounded=0;orthogonalLoop=1;jettySize=auto;html=1;exitX=1;exitY=0.75;exitDx=0;exitDy=0;dashed=1;" parent="1" source="hTQzxeohMcgxq5HyWSMG-2" target="10_IyARQiNd5ybZHdDWF-2" edge="1">
          <mxGeometry relative="1" as="geometry"/>
        </mxCell>
        <mxCell id="F7oCmw32gP1puV4d2X4c-8" style="edgeStyle=orthogonalEdgeStyle;rounded=0;orthogonalLoop=1;jettySize=auto;html=1;exitX=1;exitY=0.25;exitDx=0;exitDy=0;dashed=1;" parent="1" source="hTQzxeohMcgxq5HyWSMG-2" target="F7oCmw32gP1puV4d2X4c-5" edge="1">
          <mxGeometry relative="1" as="geometry"/>
        </mxCell>
        <mxCell id="hTQzxeohMcgxq5HyWSMG-2" value="modify" style="rounded=1;whiteSpace=wrap;html=1;" parent="1" vertex="1">
          <mxGeometry x="200" y="20" width="60" height="60" as="geometry"/>
        </mxCell>
        <mxCell id="IlRY-WLdl9bS0oWDxXhX-16" style="edgeStyle=orthogonalEdgeStyle;rounded=0;orthogonalLoop=1;jettySize=auto;html=1;exitX=1;exitY=0.75;exitDx=0;exitDy=0;dashed=1;" parent="1" source="hTQzxeohMcgxq5HyWSMG-3" target="IlRY-WLdl9bS0oWDxXhX-4" edge="1">
          <mxGeometry relative="1" as="geometry"/>
        </mxCell>
        <mxCell id="hTQzxeohMcgxq5HyWSMG-3" value="clone/&lt;br&gt;copy" style="rounded=1;whiteSpace=wrap;html=1;" parent="1" vertex="1">
          <mxGeometry x="200" y="220" width="60" height="60" as="geometry"/>
        </mxCell>
        <mxCell id="IlRY-WLdl9bS0oWDxXhX-14" style="edgeStyle=orthogonalEdgeStyle;rounded=0;orthogonalLoop=1;jettySize=auto;html=1;exitX=1;exitY=0.25;exitDx=0;exitDy=0;entryX=0.005;entryY=0.6;entryDx=0;entryDy=0;entryPerimeter=0;dashed=1;" parent="1" source="hTQzxeohMcgxq5HyWSMG-4" target="IlRY-WLdl9bS0oWDxXhX-3" edge="1">
          <mxGeometry relative="1" as="geometry"/>
        </mxCell>
        <mxCell id="IlRY-WLdl9bS0oWDxXhX-15" style="edgeStyle=orthogonalEdgeStyle;rounded=0;orthogonalLoop=1;jettySize=auto;html=1;exitX=1;exitY=0.25;exitDx=0;exitDy=0;entryX=0.013;entryY=0.65;entryDx=0;entryDy=0;entryPerimeter=0;dashed=1;" parent="1" source="hTQzxeohMcgxq5HyWSMG-4" target="IlRY-WLdl9bS0oWDxXhX-1" edge="1">
          <mxGeometry relative="1" as="geometry"/>
        </mxCell>
        <mxCell id="10_IyARQiNd5ybZHdDWF-3" style="edgeStyle=orthogonalEdgeStyle;rounded=0;orthogonalLoop=1;jettySize=auto;html=1;exitX=1;exitY=0.75;exitDx=0;exitDy=0;entryX=0.004;entryY=0.4;entryDx=0;entryDy=0;entryPerimeter=0;dashed=1;" parent="1" source="hTQzxeohMcgxq5HyWSMG-4" target="10_IyARQiNd5ybZHdDWF-1" edge="1">
          <mxGeometry relative="1" as="geometry"/>
        </mxCell>
        <mxCell id="hTQzxeohMcgxq5HyWSMG-4" value="delete" style="rounded=1;whiteSpace=wrap;html=1;" parent="1" vertex="1">
          <mxGeometry x="200" y="120" width="60" height="60" as="geometry"/>
        </mxCell>
        <mxCell id="C75cSjhWRV783PfquYuw-14" style="edgeStyle=orthogonalEdgeStyle;rounded=0;orthogonalLoop=1;jettySize=auto;html=1;exitX=1;exitY=0.5;exitDx=0;exitDy=0;entryX=-0.004;entryY=0.45;entryDx=0;entryDy=0;entryPerimeter=0;dashed=1;" parent="1" source="kyZIP-bJGwQKnWlVnqis-1" target="C75cSjhWRV783PfquYuw-12" edge="1">
          <mxGeometry relative="1" as="geometry"/>
        </mxCell>
        <mxCell id="kyZIP-bJGwQKnWlVnqis-1" value="access&lt;br&gt;permiss" style="rounded=1;whiteSpace=wrap;html=1;" parent="1" vertex="1">
          <mxGeometry x="200" y="330" width="60" height="60" as="geometry"/>
        </mxCell>
        <mxCell id="IlRY-WLdl9bS0oWDxXhX-1" value="delete arr[1]" style="text;html=1;resizable=0;points=[];autosize=1;align=left;verticalAlign=top;spacingTop=-4;" parent="1" vertex="1">
          <mxGeometry x="310" y="140" width="80" height="20" as="geometry"/>
        </mxCell>
        <mxCell id="IlRY-WLdl9bS0oWDxXhX-2" value="arr.splice(0,1,2)、splice(2,0)/splice(-1,0)" style="text;html=1;resizable=0;points=[];autosize=1;align=left;verticalAlign=top;spacingTop=-4;" parent="1" vertex="1">
          <mxGeometry x="310" y="40" width="230" height="20" as="geometry"/>
        </mxCell>
        <mxCell id="IlRY-WLdl9bS0oWDxXhX-3" value="arr.splice(0,3)--从 0 开始删除两个" style="text;html=1;resizable=0;points=[];autosize=1;align=left;verticalAlign=top;spacingTop=-4;" parent="1" vertex="1">
          <mxGeometry x="310" y="120" width="190" height="20" as="geometry"/>
        </mxCell>
        <mxCell id="IlRY-WLdl9bS0oWDxXhX-4" value="arr.slice(1,3)/splice(-2,end)--拷贝" style="text;html=1;resizable=0;points=[];autosize=1;align=left;verticalAlign=top;spacingTop=-4;" parent="1" vertex="1">
          <mxGeometry x="310" y="250" width="190" height="20" as="geometry"/>
        </mxCell>
        <mxCell id="IlRY-WLdl9bS0oWDxXhX-17" style="edgeStyle=orthogonalEdgeStyle;rounded=0;orthogonalLoop=1;jettySize=auto;html=1;exitX=1;exitY=0.5;exitDx=0;exitDy=0;entryX=-0.006;entryY=0.6;entryDx=0;entryDy=0;entryPerimeter=0;dashed=1;" parent="1" source="IlRY-WLdl9bS0oWDxXhX-5" target="IlRY-WLdl9bS0oWDxXhX-9" edge="1">
          <mxGeometry relative="1" as="geometry"/>
        </mxCell>
        <mxCell id="IlRY-WLdl9bS0oWDxXhX-18" style="edgeStyle=orthogonalEdgeStyle;rounded=0;orthogonalLoop=1;jettySize=auto;html=1;exitX=1;exitY=0.75;exitDx=0;exitDy=0;entryX=0.007;entryY=-0.167;entryDx=0;entryDy=0;entryPerimeter=0;dashed=1;" parent="1" source="IlRY-WLdl9bS0oWDxXhX-5" target="IlRY-WLdl9bS0oWDxXhX-11" edge="1">
          <mxGeometry relative="1" as="geometry"/>
        </mxCell>
        <mxCell id="IlRY-WLdl9bS0oWDxXhX-19" style="edgeStyle=orthogonalEdgeStyle;rounded=0;orthogonalLoop=1;jettySize=auto;html=1;exitX=1;exitY=0.75;exitDx=0;exitDy=0;entryX=0.002;entryY=-0.067;entryDx=0;entryDy=0;entryPerimeter=0;dashed=1;" parent="1" source="IlRY-WLdl9bS0oWDxXhX-5" target="IlRY-WLdl9bS0oWDxXhX-12" edge="1">
          <mxGeometry relative="1" as="geometry"/>
        </mxCell>
        <mxCell id="IlRY-WLdl9bS0oWDxXhX-20" style="edgeStyle=orthogonalEdgeStyle;rounded=0;orthogonalLoop=1;jettySize=auto;html=1;exitX=1;exitY=0.75;exitDx=0;exitDy=0;entryX=0;entryY=0.5;entryDx=0;entryDy=0;dashed=1;" parent="1" source="IlRY-WLdl9bS0oWDxXhX-5" target="IlRY-WLdl9bS0oWDxXhX-12" edge="1">
          <mxGeometry relative="1" as="geometry"/>
        </mxCell>
        <mxCell id="IlRY-WLdl9bS0oWDxXhX-23" style="edgeStyle=orthogonalEdgeStyle;rounded=0;orthogonalLoop=1;jettySize=auto;html=1;exitX=1;exitY=0.75;exitDx=0;exitDy=0;entryX=0;entryY=0.5;entryDx=0;entryDy=0;dashed=1;" parent="1" source="IlRY-WLdl9bS0oWDxXhX-5" target="IlRY-WLdl9bS0oWDxXhX-22" edge="1">
          <mxGeometry relative="1" as="geometry"/>
        </mxCell>
        <mxCell id="IlRY-WLdl9bS0oWDxXhX-25" style="edgeStyle=orthogonalEdgeStyle;rounded=0;orthogonalLoop=1;jettySize=auto;html=1;exitX=1;exitY=0.75;exitDx=0;exitDy=0;entryX=-0.005;entryY=0.6;entryDx=0;entryDy=0;entryPerimeter=0;dashed=1;" parent="1" source="IlRY-WLdl9bS0oWDxXhX-5" target="IlRY-WLdl9bS0oWDxXhX-24" edge="1">
          <mxGeometry relative="1" as="geometry"/>
        </mxCell>
        <mxCell id="IlRY-WLdl9bS0oWDxXhX-28" style="edgeStyle=orthogonalEdgeStyle;rounded=0;orthogonalLoop=1;jettySize=auto;html=1;exitX=1;exitY=0.5;exitDx=0;exitDy=0;entryX=0;entryY=0.5;entryDx=0;entryDy=0;dashed=1;" parent="1" source="IlRY-WLdl9bS0oWDxXhX-5" target="IlRY-WLdl9bS0oWDxXhX-27" edge="1">
          <mxGeometry relative="1" as="geometry"/>
        </mxCell>
        <mxCell id="C75cSjhWRV783PfquYuw-9" style="edgeStyle=orthogonalEdgeStyle;rounded=0;orthogonalLoop=1;jettySize=auto;html=1;exitX=1;exitY=0.75;exitDx=0;exitDy=0;entryX=0;entryY=0.5;entryDx=0;entryDy=0;entryPerimeter=0;dashed=1;" parent="1" source="IlRY-WLdl9bS0oWDxXhX-5" target="C75cSjhWRV783PfquYuw-5" edge="1">
          <mxGeometry relative="1" as="geometry"/>
        </mxCell>
        <mxCell id="F7oCmw32gP1puV4d2X4c-3" style="edgeStyle=orthogonalEdgeStyle;rounded=0;orthogonalLoop=1;jettySize=auto;html=1;exitX=1;exitY=0.25;exitDx=0;exitDy=0;entryX=-0.006;entryY=0.45;entryDx=0;entryDy=0;entryPerimeter=0;dashed=1;" parent="1" source="IlRY-WLdl9bS0oWDxXhX-5" target="C75cSjhWRV783PfquYuw-11" edge="1">
          <mxGeometry relative="1" as="geometry"/>
        </mxCell>
        <mxCell id="qJgs1gcuT-OLatsE5UrT-3" style="edgeStyle=orthogonalEdgeStyle;rounded=0;orthogonalLoop=1;jettySize=auto;html=1;exitX=1;exitY=0.75;exitDx=0;exitDy=0;entryX=0;entryY=0.5;entryDx=0;entryDy=0;entryPerimeter=0;dashed=1;" parent="1" source="IlRY-WLdl9bS0oWDxXhX-5" target="F7oCmw32gP1puV4d2X4c-4" edge="1">
          <mxGeometry relative="1" as="geometry"/>
        </mxCell>
        <mxCell id="qJgs1gcuT-OLatsE5UrT-4" style="edgeStyle=orthogonalEdgeStyle;rounded=0;orthogonalLoop=1;jettySize=auto;html=1;exitX=1;exitY=0.75;exitDx=0;exitDy=0;entryX=-0.002;entryY=0.45;entryDx=0;entryDy=0;entryPerimeter=0;dashed=1;" parent="1" source="IlRY-WLdl9bS0oWDxXhX-5" target="qJgs1gcuT-OLatsE5UrT-2" edge="1">
          <mxGeometry relative="1" as="geometry"/>
        </mxCell>
        <mxCell id="gOyYfihW0mNB6Bdz0KjD-2" style="edgeStyle=orthogonalEdgeStyle;rounded=0;orthogonalLoop=1;jettySize=auto;html=1;exitX=1;exitY=0.75;exitDx=0;exitDy=0;entryX=0;entryY=0.5;entryDx=0;entryDy=0;dashed=1;" edge="1" parent="1" source="IlRY-WLdl9bS0oWDxXhX-5" target="gOyYfihW0mNB6Bdz0KjD-1">
          <mxGeometry relative="1" as="geometry"/>
        </mxCell>
        <mxCell id="IlRY-WLdl9bS0oWDxXhX-5" value="traversals" style="rounded=1;whiteSpace=wrap;html=1;" parent="1" vertex="1">
          <mxGeometry x="200" y="430" width="60" height="60" as="geometry"/>
        </mxCell>
        <mxCell id="IlRY-WLdl9bS0oWDxXhX-9" value="arr.forEach---按照条件遍历" style="text;html=1;resizable=0;points=[];autosize=1;align=left;verticalAlign=top;spacingTop=-4;" parent="1" vertex="1">
          <mxGeometry x="320" y="460" width="160" height="20" as="geometry"/>
        </mxCell>
        <mxCell id="IlRY-WLdl9bS0oWDxXhX-10" value="&lt;span style=&quot;color: rgb(38 , 38 , 38) ; line-height: 24px ; letter-spacing: 0.05em ; outline-style: none ; overflow-wrap: break-word&quot;&gt;&lt;font style=&quot;font-size: 12px&quot;&gt;arr.indexOf(item, from)–&amp;nbsp;item从index开始查找from，并返回找到索引的位置，否则返回-1&lt;/font&gt;&lt;/span&gt;" style="text;html=1;resizable=0;points=[];autosize=1;align=left;verticalAlign=top;spacingTop=-4;" parent="1" vertex="1">
          <mxGeometry x="320" y="470" width="520" height="30" as="geometry"/>
        </mxCell>
        <mxCell id="IlRY-WLdl9bS0oWDxXhX-11" value="arr.lastIndexOf(item, from) –相同，但从右到左查找" style="text;html=1;" parent="1" vertex="1">
          <mxGeometry x="320" y="490" width="290" height="30" as="geometry"/>
        </mxCell>
        <mxCell id="IlRY-WLdl9bS0oWDxXhX-12" value="arr.includes(item, from)– item从索引开始查找from，true如果找到则返回" style="text;html=1;" parent="1" vertex="1">
          <mxGeometry x="320" y="510" width="410" height="30" as="geometry"/>
        </mxCell>
        <mxCell id="IlRY-WLdl9bS0oWDxXhX-22" value="arr.find-如果返回true，则搜索将停止，返回 item。如果未找到，返回undefined" style="text;html=1;" parent="1" vertex="1">
          <mxGeometry x="320" y="530" width="410" height="30" as="geometry"/>
        </mxCell>
        <mxCell id="IlRY-WLdl9bS0oWDxXhX-24" value="arr.filter--返回所有匹配元素的数组" style="text;html=1;resizable=0;points=[];autosize=1;align=left;verticalAlign=top;spacingTop=-4;" parent="1" vertex="1">
          <mxGeometry x="320" y="550" width="200" height="20" as="geometry"/>
        </mxCell>
        <mxCell id="IlRY-WLdl9bS0oWDxXhX-30" style="edgeStyle=orthogonalEdgeStyle;rounded=0;orthogonalLoop=1;jettySize=auto;html=1;exitX=1;exitY=0.5;exitDx=0;exitDy=0;entryX=-0.012;entryY=0.55;entryDx=0;entryDy=0;entryPerimeter=0;dashed=1;" parent="1" source="IlRY-WLdl9bS0oWDxXhX-26" target="IlRY-WLdl9bS0oWDxXhX-29" edge="1">
          <mxGeometry relative="1" as="geometry"/>
        </mxCell>
        <mxCell id="IlRY-WLdl9bS0oWDxXhX-34" style="edgeStyle=orthogonalEdgeStyle;rounded=0;orthogonalLoop=1;jettySize=auto;html=1;exitX=1;exitY=0.75;exitDx=0;exitDy=0;entryX=-0.007;entryY=0.067;entryDx=0;entryDy=0;entryPerimeter=0;dashed=1;" parent="1" source="IlRY-WLdl9bS0oWDxXhX-26" target="IlRY-WLdl9bS0oWDxXhX-33" edge="1">
          <mxGeometry relative="1" as="geometry"/>
        </mxCell>
        <mxCell id="IlRY-WLdl9bS0oWDxXhX-35" style="edgeStyle=orthogonalEdgeStyle;rounded=0;orthogonalLoop=1;jettySize=auto;html=1;exitX=1;exitY=0.75;exitDx=0;exitDy=0;entryX=0;entryY=0.5;entryDx=0;entryDy=0;dashed=1;" parent="1" source="IlRY-WLdl9bS0oWDxXhX-26" target="IlRY-WLdl9bS0oWDxXhX-33" edge="1">
          <mxGeometry relative="1" as="geometry"/>
        </mxCell>
        <mxCell id="IlRY-WLdl9bS0oWDxXhX-37" style="edgeStyle=orthogonalEdgeStyle;rounded=0;orthogonalLoop=1;jettySize=auto;html=1;exitX=1;exitY=0.75;exitDx=0;exitDy=0;entryX=0;entryY=0.5;entryDx=0;entryDy=0;entryPerimeter=0;dashed=1;" parent="1" source="IlRY-WLdl9bS0oWDxXhX-26" target="IlRY-WLdl9bS0oWDxXhX-36" edge="1">
          <mxGeometry relative="1" as="geometry"/>
        </mxCell>
        <mxCell id="IlRY-WLdl9bS0oWDxXhX-39" style="edgeStyle=orthogonalEdgeStyle;rounded=0;orthogonalLoop=1;jettySize=auto;html=1;exitX=1;exitY=0.75;exitDx=0;exitDy=0;entryX=0;entryY=0.5;entryDx=0;entryDy=0;entryPerimeter=0;dashed=1;" parent="1" source="IlRY-WLdl9bS0oWDxXhX-26" target="IlRY-WLdl9bS0oWDxXhX-38" edge="1">
          <mxGeometry relative="1" as="geometry"/>
        </mxCell>
        <mxCell id="C75cSjhWRV783PfquYuw-2" style="edgeStyle=orthogonalEdgeStyle;rounded=0;orthogonalLoop=1;jettySize=auto;html=1;exitX=1;exitY=0.75;exitDx=0;exitDy=0;entryX=0.003;entryY=0.65;entryDx=0;entryDy=0;entryPerimeter=0;dashed=1;" parent="1" source="IlRY-WLdl9bS0oWDxXhX-26" target="10_IyARQiNd5ybZHdDWF-5" edge="1">
          <mxGeometry relative="1" as="geometry"/>
        </mxCell>
        <mxCell id="C75cSjhWRV783PfquYuw-3" style="edgeStyle=orthogonalEdgeStyle;rounded=0;orthogonalLoop=1;jettySize=auto;html=1;exitX=1;exitY=0.75;exitDx=0;exitDy=0;entryX=0;entryY=0.5;entryDx=0;entryDy=0;dashed=1;" parent="1" source="IlRY-WLdl9bS0oWDxXhX-26" target="C75cSjhWRV783PfquYuw-1" edge="1">
          <mxGeometry relative="1" as="geometry"/>
        </mxCell>
        <mxCell id="F7oCmw32gP1puV4d2X4c-2" style="edgeStyle=orthogonalEdgeStyle;rounded=0;orthogonalLoop=1;jettySize=auto;html=1;exitX=1;exitY=0.25;exitDx=0;exitDy=0;entryX=0;entryY=0.5;entryDx=0;entryDy=0;dashed=1;" parent="1" source="IlRY-WLdl9bS0oWDxXhX-26" edge="1">
          <mxGeometry relative="1" as="geometry">
            <mxPoint x="320" y="685" as="targetPoint"/>
          </mxGeometry>
        </mxCell>
        <mxCell id="IlRY-WLdl9bS0oWDxXhX-26" value="transform" style="rounded=1;whiteSpace=wrap;html=1;" parent="1" vertex="1">
          <mxGeometry x="200" y="670" width="60" height="60" as="geometry"/>
        </mxCell>
        <mxCell id="IlRY-WLdl9bS0oWDxXhX-27" value="arr.map--为数组的每个元素调用函数，并返回结果数组" style="text;html=1;" parent="1" vertex="1">
          <mxGeometry x="320" y="440" width="270" height="30" as="geometry"/>
        </mxCell>
        <mxCell id="IlRY-WLdl9bS0oWDxXhX-29" value="arr.sort--排序，返回数组" style="text;html=1;resizable=0;points=[];autosize=1;align=left;verticalAlign=top;spacingTop=-4;" parent="1" vertex="1">
          <mxGeometry x="320" y="690" width="140" height="20" as="geometry"/>
        </mxCell>
        <mxCell id="IlRY-WLdl9bS0oWDxXhX-31" value="arr.reverse--反转顺序，返回数组" style="text;html=1;resizable=0;points=[];autosize=1;align=left;verticalAlign=top;spacingTop=-4;" parent="1" vertex="1">
          <mxGeometry x="320" y="710" width="190" height="20" as="geometry"/>
        </mxCell>
        <mxCell id="IlRY-WLdl9bS0oWDxXhX-33" value="str.split(DELIM)通过给定的定界符将字符串拆分为一个数组 delim" style="text;html=1;" parent="1" vertex="1">
          <mxGeometry x="320" y="720" width="290" height="30" as="geometry"/>
        </mxCell>
        <mxCell id="IlRY-WLdl9bS0oWDxXhX-36" value="arr.reduce、arr.reduceRight--计算数组单个值" style="text;html=1;resizable=0;points=[];autosize=1;align=left;verticalAlign=top;spacingTop=-4;" parent="1" vertex="1">
          <mxGeometry x="320" y="740" width="260" height="20" as="geometry"/>
        </mxCell>
        <mxCell id="IlRY-WLdl9bS0oWDxXhX-38" value="Array.isArray--是数组返回 true，不是返回 false" style="text;html=1;resizable=0;points=[];autosize=1;align=left;verticalAlign=top;spacingTop=-4;" parent="1" vertex="1">
          <mxGeometry x="320" y="760" width="260" height="20" as="geometry"/>
        </mxCell>
        <mxCell id="10_IyARQiNd5ybZHdDWF-1" value="arr.pop--尾部删除、app.unshift--头部删除" style="text;html=1;resizable=0;points=[];autosize=1;align=left;verticalAlign=top;spacingTop=-4;" parent="1" vertex="1">
          <mxGeometry x="310" y="160" width="240" height="20" as="geometry"/>
        </mxCell>
        <mxCell id="10_IyARQiNd5ybZHdDWF-2" value="arr.push--尾部添加、app.shift--头部添加" style="text;html=1;resizable=0;points=[];autosize=1;align=left;verticalAlign=top;spacingTop=-4;" parent="1" vertex="1">
          <mxGeometry x="310" y="60" width="230" height="20" as="geometry"/>
        </mxCell>
        <mxCell id="10_IyARQiNd5ybZHdDWF-5" value="Array.from---对数组和可迭代对象进行操作--可迭代的内容转换为数组" style="text;html=1;resizable=0;points=[];autosize=1;align=left;verticalAlign=top;spacingTop=-4;" parent="1" vertex="1">
          <mxGeometry x="320" y="780" width="380" height="20" as="geometry"/>
        </mxCell>
        <mxCell id="C75cSjhWRV783PfquYuw-1" value="for of 不访问数组，只返回 value，for in 访问数组所有属性，返回 key" style="text;html=1;" parent="1" vertex="1">
          <mxGeometry x="320" y="800" width="390" height="30" as="geometry"/>
        </mxCell>
        <mxCell id="C75cSjhWRV783PfquYuw-5" value="string(arr)--数组拆成字符串" style="text;html=1;resizable=0;points=[];autosize=1;align=left;verticalAlign=top;spacingTop=-4;" parent="1" vertex="1">
          <mxGeometry x="320" y="570" width="160" height="20" as="geometry"/>
        </mxCell>
        <mxCell id="C75cSjhWRV783PfquYuw-10" value="app.concat--复制数组" style="text;html=1;resizable=0;points=[];autosize=1;align=left;verticalAlign=top;spacingTop=-4;" parent="1" vertex="1">
          <mxGeometry x="310" y="230" width="130" height="20" as="geometry"/>
        </mxCell>
        <mxCell id="C75cSjhWRV783PfquYuw-11" value="arr.filter--选择出符合条件的数组" style="text;html=1;resizable=0;points=[];autosize=1;align=left;verticalAlign=top;spacingTop=-4;" parent="1" vertex="1">
          <mxGeometry x="320" y="430" width="180" height="20" as="geometry"/>
        </mxCell>
        <mxCell id="C75cSjhWRV783PfquYuw-12" value="arr.get--将对象属性绑定到该属性被调用的函数、arr.set--将对象绑定到要调用的参数" style="text;html=1;resizable=0;points=[];autosize=1;align=left;verticalAlign=top;spacingTop=-4;" parent="1" vertex="1">
          <mxGeometry x="320" y="350" width="460" height="20" as="geometry"/>
        </mxCell>
        <mxCell id="F7oCmw32gP1puV4d2X4c-1" value="toString-&gt; valueOf 字符串显示， valueOf -&gt; toString 字符串以外的其他内容显示" style="text;html=1;" parent="1" vertex="1">
          <mxGeometry x="320" y="670" width="450" height="30" as="geometry"/>
        </mxCell>
        <mxCell id="F7oCmw32gP1puV4d2X4c-4" value="getOwnPropertyDescription--查询属性的完整信息--可写、可循环列出、可配置" style="text;html=1;resizable=0;points=[];autosize=1;align=left;verticalAlign=top;spacingTop=-4;" parent="1" vertex="1">
          <mxGeometry x="320" y="590" width="430" height="20" as="geometry"/>
        </mxCell>
        <mxCell id="F7oCmw32gP1puV4d2X4c-5" value="defineProperty--修改属性信息" style="text;html=1;resizable=0;points=[];autosize=1;align=left;verticalAlign=top;spacingTop=-4;" parent="1" vertex="1">
          <mxGeometry x="313" y="24" width="170" height="20" as="geometry"/>
        </mxCell>
        <mxCell id="qJgs1gcuT-OLatsE5UrT-2" value="arr.join--将一个数组(或类数组对象)的所有元素连接成一个字符串并返回这个字符串" style="text;html=1;resizable=0;points=[];autosize=1;align=left;verticalAlign=top;spacingTop=-4;" parent="1" vertex="1">
          <mxGeometry x="320" y="610" width="450" height="20" as="geometry"/>
        </mxCell>
        <mxCell id="gOyYfihW0mNB6Bdz0KjD-1" value="Symbol.for(key)--通过名字返回字符串、Symbol.keyFor(sym)--通过字符串返回名字。二者是相反操作" style="text;html=1;" vertex="1" parent="1">
          <mxGeometry x="320" y="625" width="560" height="30" as="geometry"/>
        </mxCell>
      </root>
    </mxGraphModel>
  </diagram>
  <diagram id="WjU1k2lRsM1wFutmD0wl" name="Object">
    <mxGraphModel dx="953" dy="524" grid="1" gridSize="10" guides="1" tooltips="1" connect="1" arrows="1" fold="1" page="1" pageScale="1" pageWidth="827" pageHeight="1169" math="0" shadow="0">
      <root>
        <mxCell id="52uRmhoQFjtCpDWTwTk8-0"/>
        <mxCell id="52uRmhoQFjtCpDWTwTk8-1" parent="52uRmhoQFjtCpDWTwTk8-0"/>
        <mxCell id="jFYHPTtX90RcrPpbZv2E-9" style="edgeStyle=orthogonalEdgeStyle;rounded=0;orthogonalLoop=1;jettySize=auto;html=1;exitX=1;exitY=0.25;exitDx=0;exitDy=0;entryX=0;entryY=0.5;entryDx=0;entryDy=0;dashed=1;" parent="52uRmhoQFjtCpDWTwTk8-1" source="jFYHPTtX90RcrPpbZv2E-13" target="jFYHPTtX90RcrPpbZv2E-14" edge="1">
          <mxGeometry relative="1" as="geometry">
            <Array as="points">
              <mxPoint x="140" y="245"/>
              <mxPoint x="140" y="60"/>
            </Array>
          </mxGeometry>
        </mxCell>
        <mxCell id="jFYHPTtX90RcrPpbZv2E-10" style="edgeStyle=orthogonalEdgeStyle;rounded=0;orthogonalLoop=1;jettySize=auto;html=1;exitX=1;exitY=0.25;exitDx=0;exitDy=0;entryX=0;entryY=0.5;entryDx=0;entryDy=0;dashed=1;" parent="52uRmhoQFjtCpDWTwTk8-1" source="jFYHPTtX90RcrPpbZv2E-13" target="jFYHPTtX90RcrPpbZv2E-16" edge="1">
          <mxGeometry relative="1" as="geometry"/>
        </mxCell>
        <mxCell id="jFYHPTtX90RcrPpbZv2E-11" style="edgeStyle=orthogonalEdgeStyle;rounded=0;orthogonalLoop=1;jettySize=auto;html=1;exitX=1;exitY=0.5;exitDx=0;exitDy=0;entryX=0;entryY=0.5;entryDx=0;entryDy=0;dashed=1;" parent="52uRmhoQFjtCpDWTwTk8-1" source="jFYHPTtX90RcrPpbZv2E-13" target="jFYHPTtX90RcrPpbZv2E-15" edge="1">
          <mxGeometry relative="1" as="geometry"/>
        </mxCell>
        <mxCell id="jFYHPTtX90RcrPpbZv2E-12" style="edgeStyle=orthogonalEdgeStyle;rounded=0;orthogonalLoop=1;jettySize=auto;html=1;exitX=1;exitY=0.75;exitDx=0;exitDy=0;entryX=0;entryY=0.5;entryDx=0;entryDy=0;dashed=1;" parent="52uRmhoQFjtCpDWTwTk8-1" source="jFYHPTtX90RcrPpbZv2E-13" target="jFYHPTtX90RcrPpbZv2E-17" edge="1">
          <mxGeometry relative="1" as="geometry"/>
        </mxCell>
        <mxCell id="XM92jo9vQRvwv2dolbIj-2" style="edgeStyle=orthogonalEdgeStyle;rounded=0;orthogonalLoop=1;jettySize=auto;html=1;exitX=1;exitY=0.75;exitDx=0;exitDy=0;entryX=0;entryY=0.5;entryDx=0;entryDy=0;dashed=1;" parent="52uRmhoQFjtCpDWTwTk8-1" source="jFYHPTtX90RcrPpbZv2E-13" target="XM92jo9vQRvwv2dolbIj-0" edge="1">
          <mxGeometry relative="1" as="geometry">
            <Array as="points">
              <mxPoint x="170" y="275"/>
              <mxPoint x="170" y="480"/>
            </Array>
          </mxGeometry>
        </mxCell>
        <mxCell id="XM92jo9vQRvwv2dolbIj-3" style="edgeStyle=orthogonalEdgeStyle;rounded=0;orthogonalLoop=1;jettySize=auto;html=1;exitX=1;exitY=0.75;exitDx=0;exitDy=0;entryX=0;entryY=0.5;entryDx=0;entryDy=0;dashed=1;" parent="52uRmhoQFjtCpDWTwTk8-1" source="jFYHPTtX90RcrPpbZv2E-13" target="XM92jo9vQRvwv2dolbIj-1" edge="1">
          <mxGeometry relative="1" as="geometry">
            <Array as="points">
              <mxPoint x="150" y="275"/>
              <mxPoint x="150" y="737"/>
            </Array>
          </mxGeometry>
        </mxCell>
        <mxCell id="jFYHPTtX90RcrPpbZv2E-13" value="Object" style="rounded=1;whiteSpace=wrap;html=1;" parent="52uRmhoQFjtCpDWTwTk8-1" vertex="1">
          <mxGeometry x="70" y="230" width="60" height="60" as="geometry"/>
        </mxCell>
        <mxCell id="jFYHPTtX90RcrPpbZv2E-14" value="modify" style="rounded=1;whiteSpace=wrap;html=1;" parent="52uRmhoQFjtCpDWTwTk8-1" vertex="1">
          <mxGeometry x="190" y="30" width="60" height="60" as="geometry"/>
        </mxCell>
        <mxCell id="tKU63mxzhyTK4PWKBqR8-4" style="edgeStyle=orthogonalEdgeStyle;rounded=0;orthogonalLoop=1;jettySize=auto;html=1;exitX=1;exitY=0.5;exitDx=0;exitDy=0;dashed=1;" parent="52uRmhoQFjtCpDWTwTk8-1" source="jFYHPTtX90RcrPpbZv2E-15" target="H6WkqI66EHowxm0sLhoh-0" edge="1">
          <mxGeometry relative="1" as="geometry"/>
        </mxCell>
        <mxCell id="jFYHPTtX90RcrPpbZv2E-15" value="clone/&lt;br&gt;copy" style="rounded=1;whiteSpace=wrap;html=1;" parent="52uRmhoQFjtCpDWTwTk8-1" vertex="1">
          <mxGeometry x="190" y="230" width="60" height="60" as="geometry"/>
        </mxCell>
        <mxCell id="jFYHPTtX90RcrPpbZv2E-16" value="delete" style="rounded=1;whiteSpace=wrap;html=1;" parent="52uRmhoQFjtCpDWTwTk8-1" vertex="1">
          <mxGeometry x="190" y="130" width="60" height="60" as="geometry"/>
        </mxCell>
        <mxCell id="g4EE4_HVE2trmpGd-t0b-8" style="edgeStyle=orthogonalEdgeStyle;rounded=0;orthogonalLoop=1;jettySize=auto;html=1;exitX=1;exitY=0.5;exitDx=0;exitDy=0;entryX=0;entryY=0.5;entryDx=0;entryDy=0;entryPerimeter=0;dashed=1;" parent="52uRmhoQFjtCpDWTwTk8-1" source="jFYHPTtX90RcrPpbZv2E-17" target="g4EE4_HVE2trmpGd-t0b-7" edge="1">
          <mxGeometry relative="1" as="geometry"/>
        </mxCell>
        <mxCell id="jFYHPTtX90RcrPpbZv2E-17" value="access&lt;br&gt;permiss" style="rounded=1;whiteSpace=wrap;html=1;" parent="52uRmhoQFjtCpDWTwTk8-1" vertex="1">
          <mxGeometry x="190" y="340" width="60" height="60" as="geometry"/>
        </mxCell>
        <mxCell id="H6WkqI66EHowxm0sLhoh-0" value="Object.assign--简单的克隆" style="text;html=1;resizable=0;points=[];autosize=1;align=left;verticalAlign=top;spacingTop=-4;" parent="52uRmhoQFjtCpDWTwTk8-1" vertex="1">
          <mxGeometry x="315" y="250" width="160" height="20" as="geometry"/>
        </mxCell>
        <mxCell id="opwUGlIA884b8vls4GQr-2" style="edgeStyle=orthogonalEdgeStyle;rounded=0;orthogonalLoop=1;jettySize=auto;html=1;exitX=1;exitY=0.5;exitDx=0;exitDy=0;entryX=0;entryY=0.5;entryDx=0;entryDy=0;dashed=1;" parent="52uRmhoQFjtCpDWTwTk8-1" source="XM92jo9vQRvwv2dolbIj-0" target="opwUGlIA884b8vls4GQr-0" edge="1">
          <mxGeometry relative="1" as="geometry"/>
        </mxCell>
        <mxCell id="opwUGlIA884b8vls4GQr-4" style="edgeStyle=orthogonalEdgeStyle;rounded=0;orthogonalLoop=1;jettySize=auto;html=1;exitX=1;exitY=0.5;exitDx=0;exitDy=0;entryX=0;entryY=0.5;entryDx=0;entryDy=0;dashed=1;" parent="52uRmhoQFjtCpDWTwTk8-1" source="XM92jo9vQRvwv2dolbIj-0" target="opwUGlIA884b8vls4GQr-1" edge="1">
          <mxGeometry relative="1" as="geometry"/>
        </mxCell>
        <mxCell id="g4EE4_HVE2trmpGd-t0b-2" style="edgeStyle=orthogonalEdgeStyle;rounded=0;orthogonalLoop=1;jettySize=auto;html=1;exitX=1;exitY=0.25;exitDx=0;exitDy=0;dashed=1;" parent="52uRmhoQFjtCpDWTwTk8-1" source="XM92jo9vQRvwv2dolbIj-0" target="g4EE4_HVE2trmpGd-t0b-1" edge="1">
          <mxGeometry relative="1" as="geometry"/>
        </mxCell>
        <mxCell id="g4EE4_HVE2trmpGd-t0b-5" style="edgeStyle=orthogonalEdgeStyle;rounded=0;orthogonalLoop=1;jettySize=auto;html=1;exitX=1;exitY=0.5;exitDx=0;exitDy=0;entryX=0;entryY=0.375;entryDx=0;entryDy=0;entryPerimeter=0;dashed=1;" parent="52uRmhoQFjtCpDWTwTk8-1" source="XM92jo9vQRvwv2dolbIj-0" target="g4EE4_HVE2trmpGd-t0b-4" edge="1">
          <mxGeometry relative="1" as="geometry"/>
        </mxCell>
        <mxCell id="g4EE4_HVE2trmpGd-t0b-6" style="edgeStyle=orthogonalEdgeStyle;rounded=0;orthogonalLoop=1;jettySize=auto;html=1;exitX=1;exitY=0.25;exitDx=0;exitDy=0;entryX=0;entryY=0.5;entryDx=0;entryDy=0;entryPerimeter=0;dashed=1;" parent="52uRmhoQFjtCpDWTwTk8-1" source="XM92jo9vQRvwv2dolbIj-0" target="g4EE4_HVE2trmpGd-t0b-3" edge="1">
          <mxGeometry relative="1" as="geometry"/>
        </mxCell>
        <mxCell id="PrAc4wQzctQxmWvNHKKM-1" style="edgeStyle=orthogonalEdgeStyle;rounded=0;orthogonalLoop=1;jettySize=auto;html=1;exitX=1;exitY=0.5;exitDx=0;exitDy=0;entryX=0;entryY=0.5;entryDx=0;entryDy=0;dashed=1;" edge="1" parent="52uRmhoQFjtCpDWTwTk8-1" source="XM92jo9vQRvwv2dolbIj-0" target="PrAc4wQzctQxmWvNHKKM-0">
          <mxGeometry relative="1" as="geometry"/>
        </mxCell>
        <mxCell id="XM92jo9vQRvwv2dolbIj-0" value="traversals" style="rounded=1;whiteSpace=wrap;html=1;" parent="52uRmhoQFjtCpDWTwTk8-1" vertex="1">
          <mxGeometry x="190" y="450" width="60" height="60" as="geometry"/>
        </mxCell>
        <mxCell id="tKU63mxzhyTK4PWKBqR8-3" style="edgeStyle=orthogonalEdgeStyle;rounded=0;orthogonalLoop=1;jettySize=auto;html=1;exitX=1;exitY=0.5;exitDx=0;exitDy=0;entryX=-0.007;entryY=0.5;entryDx=0;entryDy=0;entryPerimeter=0;dashed=1;" parent="52uRmhoQFjtCpDWTwTk8-1" source="XM92jo9vQRvwv2dolbIj-1" target="tKU63mxzhyTK4PWKBqR8-0" edge="1">
          <mxGeometry relative="1" as="geometry">
            <Array as="points">
              <mxPoint x="280" y="737"/>
              <mxPoint x="280" y="607"/>
            </Array>
          </mxGeometry>
        </mxCell>
        <mxCell id="bgx9efy61ssV66Z0BemA-4" style="edgeStyle=orthogonalEdgeStyle;rounded=0;orthogonalLoop=1;jettySize=auto;html=1;exitX=1;exitY=0.5;exitDx=0;exitDy=0;entryX=0;entryY=0.333;entryDx=0;entryDy=0;entryPerimeter=0;dashed=1;" parent="52uRmhoQFjtCpDWTwTk8-1" source="XM92jo9vQRvwv2dolbIj-1" target="bgx9efy61ssV66Z0BemA-1" edge="1">
          <mxGeometry relative="1" as="geometry"/>
        </mxCell>
        <mxCell id="bgx9efy61ssV66Z0BemA-7" style="edgeStyle=orthogonalEdgeStyle;rounded=0;orthogonalLoop=1;jettySize=auto;html=1;exitX=1;exitY=0.75;exitDx=0;exitDy=0;entryX=0;entryY=0.2;entryDx=0;entryDy=0;entryPerimeter=0;dashed=1;" parent="52uRmhoQFjtCpDWTwTk8-1" source="XM92jo9vQRvwv2dolbIj-1" target="bgx9efy61ssV66Z0BemA-3" edge="1">
          <mxGeometry relative="1" as="geometry"/>
        </mxCell>
        <mxCell id="bgx9efy61ssV66Z0BemA-13" style="edgeStyle=orthogonalEdgeStyle;rounded=0;orthogonalLoop=1;jettySize=auto;html=1;exitX=1;exitY=0.75;exitDx=0;exitDy=0;entryX=0;entryY=0.45;entryDx=0;entryDy=0;entryPerimeter=0;dashed=1;" parent="52uRmhoQFjtCpDWTwTk8-1" source="XM92jo9vQRvwv2dolbIj-1" target="bgx9efy61ssV66Z0BemA-12" edge="1">
          <mxGeometry relative="1" as="geometry"/>
        </mxCell>
        <mxCell id="h4xeZK4RYlz9LL3OB-UT-2" style="edgeStyle=orthogonalEdgeStyle;rounded=0;orthogonalLoop=1;jettySize=auto;html=1;exitX=1;exitY=0.75;exitDx=0;exitDy=0;entryX=0;entryY=0.5;entryDx=0;entryDy=0;entryPerimeter=0;dashed=1;" edge="1" parent="52uRmhoQFjtCpDWTwTk8-1" source="XM92jo9vQRvwv2dolbIj-1" target="h4xeZK4RYlz9LL3OB-UT-0">
          <mxGeometry relative="1" as="geometry"/>
        </mxCell>
        <mxCell id="h4xeZK4RYlz9LL3OB-UT-3" style="edgeStyle=orthogonalEdgeStyle;rounded=0;orthogonalLoop=1;jettySize=auto;html=1;exitX=1;exitY=0.75;exitDx=0;exitDy=0;entryX=0.004;entryY=0.45;entryDx=0;entryDy=0;entryPerimeter=0;dashed=1;" edge="1" parent="52uRmhoQFjtCpDWTwTk8-1" source="XM92jo9vQRvwv2dolbIj-1" target="h4xeZK4RYlz9LL3OB-UT-1">
          <mxGeometry relative="1" as="geometry"/>
        </mxCell>
        <mxCell id="h4xeZK4RYlz9LL3OB-UT-5" style="edgeStyle=orthogonalEdgeStyle;rounded=0;orthogonalLoop=1;jettySize=auto;html=1;exitX=1;exitY=0.75;exitDx=0;exitDy=0;entryX=0;entryY=0.383;entryDx=0;entryDy=0;entryPerimeter=0;dashed=1;" edge="1" parent="52uRmhoQFjtCpDWTwTk8-1" source="XM92jo9vQRvwv2dolbIj-1" target="bgx9efy61ssV66Z0BemA-9">
          <mxGeometry relative="1" as="geometry"/>
        </mxCell>
        <mxCell id="h4xeZK4RYlz9LL3OB-UT-6" style="edgeStyle=orthogonalEdgeStyle;rounded=0;orthogonalLoop=1;jettySize=auto;html=1;exitX=1;exitY=0.75;exitDx=0;exitDy=0;entryX=0;entryY=0.25;entryDx=0;entryDy=0;dashed=1;" edge="1" parent="52uRmhoQFjtCpDWTwTk8-1" source="XM92jo9vQRvwv2dolbIj-1" target="h4xeZK4RYlz9LL3OB-UT-4">
          <mxGeometry relative="1" as="geometry"/>
        </mxCell>
        <mxCell id="h4xeZK4RYlz9LL3OB-UT-8" style="edgeStyle=orthogonalEdgeStyle;rounded=0;orthogonalLoop=1;jettySize=auto;html=1;exitX=1;exitY=0.25;exitDx=0;exitDy=0;entryX=0.003;entryY=0.425;entryDx=0;entryDy=0;entryPerimeter=0;dashed=1;" edge="1" parent="52uRmhoQFjtCpDWTwTk8-1" source="XM92jo9vQRvwv2dolbIj-1" target="h4xeZK4RYlz9LL3OB-UT-7">
          <mxGeometry relative="1" as="geometry"/>
        </mxCell>
        <mxCell id="h4xeZK4RYlz9LL3OB-UT-10" style="edgeStyle=orthogonalEdgeStyle;rounded=0;orthogonalLoop=1;jettySize=auto;html=1;exitX=1;exitY=0.25;exitDx=0;exitDy=0;entryX=-0.002;entryY=0.475;entryDx=0;entryDy=0;entryPerimeter=0;dashed=1;" edge="1" parent="52uRmhoQFjtCpDWTwTk8-1" source="XM92jo9vQRvwv2dolbIj-1" target="h4xeZK4RYlz9LL3OB-UT-9">
          <mxGeometry relative="1" as="geometry"/>
        </mxCell>
        <mxCell id="h4xeZK4RYlz9LL3OB-UT-12" style="edgeStyle=orthogonalEdgeStyle;rounded=0;orthogonalLoop=1;jettySize=auto;html=1;exitX=1;exitY=0.25;exitDx=0;exitDy=0;entryX=0.003;entryY=0.517;entryDx=0;entryDy=0;entryPerimeter=0;dashed=1;" edge="1" parent="52uRmhoQFjtCpDWTwTk8-1" source="XM92jo9vQRvwv2dolbIj-1" target="h4xeZK4RYlz9LL3OB-UT-11">
          <mxGeometry relative="1" as="geometry"/>
        </mxCell>
        <mxCell id="h4xeZK4RYlz9LL3OB-UT-15" style="edgeStyle=orthogonalEdgeStyle;rounded=0;orthogonalLoop=1;jettySize=auto;html=1;exitX=1;exitY=0.5;exitDx=0;exitDy=0;entryX=0;entryY=0.55;entryDx=0;entryDy=0;entryPerimeter=0;dashed=1;" edge="1" parent="52uRmhoQFjtCpDWTwTk8-1" source="XM92jo9vQRvwv2dolbIj-1" target="h4xeZK4RYlz9LL3OB-UT-14">
          <mxGeometry relative="1" as="geometry"/>
        </mxCell>
        <mxCell id="h4xeZK4RYlz9LL3OB-UT-17" style="edgeStyle=orthogonalEdgeStyle;rounded=0;orthogonalLoop=1;jettySize=auto;html=1;exitX=1;exitY=0.5;exitDx=0;exitDy=0;entryX=0;entryY=0.75;entryDx=0;entryDy=0;dashed=1;" edge="1" parent="52uRmhoQFjtCpDWTwTk8-1" source="XM92jo9vQRvwv2dolbIj-1" target="h4xeZK4RYlz9LL3OB-UT-16">
          <mxGeometry relative="1" as="geometry"/>
        </mxCell>
        <mxCell id="h4xeZK4RYlz9LL3OB-UT-19" style="edgeStyle=orthogonalEdgeStyle;rounded=0;orthogonalLoop=1;jettySize=auto;html=1;exitX=1;exitY=0.5;exitDx=0;exitDy=0;entryX=0;entryY=0.5;entryDx=0;entryDy=0;entryPerimeter=0;dashed=1;" edge="1" parent="52uRmhoQFjtCpDWTwTk8-1" source="XM92jo9vQRvwv2dolbIj-1" target="h4xeZK4RYlz9LL3OB-UT-18">
          <mxGeometry relative="1" as="geometry"/>
        </mxCell>
        <mxCell id="XM92jo9vQRvwv2dolbIj-1" value="ttransform" style="rounded=1;whiteSpace=wrap;html=1;" parent="52uRmhoQFjtCpDWTwTk8-1" vertex="1">
          <mxGeometry x="190" y="706.5" width="60" height="60" as="geometry"/>
        </mxCell>
        <mxCell id="opwUGlIA884b8vls4GQr-0" value="Object.entries(obj) 用于返回 [key: value] 形式的成对的数组" style="text;html=1;" parent="52uRmhoQFjtCpDWTwTk8-1" vertex="1">
          <mxGeometry x="320" y="507.5" width="340" height="30" as="geometry"/>
        </mxCell>
        <mxCell id="opwUGlIA884b8vls4GQr-1" value="Object.fromEntries(array) 将结果中的数组转换成对象" style="text;html=1;" parent="52uRmhoQFjtCpDWTwTk8-1" vertex="1">
          <mxGeometry x="320" y="522.5" width="310" height="30" as="geometry"/>
        </mxCell>
        <mxCell id="tKU63mxzhyTK4PWKBqR8-0" value="Object.has--有此对象返回 true，否则返回 undefined" style="text;html=1;resizable=0;points=[];autosize=1;align=left;verticalAlign=top;spacingTop=-4;" parent="52uRmhoQFjtCpDWTwTk8-1" vertex="1">
          <mxGeometry x="317" y="596.5" width="290" height="20" as="geometry"/>
        </mxCell>
        <mxCell id="bgx9efy61ssV66Z0BemA-1" value="Object.hasOwnProperty--返回一个布尔值，该布尔值指示对象是否具有指定的属性&lt;br&gt;作为其自身的属性(而不是继承它)&lt;br&gt;Object.getOwnPropertySymbols(obj)--返回所有自己的符号键的数组&lt;br&gt;Object.getOwnPropertyNames(obj)--返回所有自己的字符串键的数组" style="text;html=1;resizable=0;points=[];autosize=1;align=left;verticalAlign=top;spacingTop=-4;" parent="52uRmhoQFjtCpDWTwTk8-1" vertex="1">
          <mxGeometry x="317" y="616.5" width="450" height="60" as="geometry"/>
        </mxCell>
        <mxCell id="bgx9efy61ssV66Z0BemA-3" value="Object.create(proto[,descriptions])--创建一个空对象&lt;br&gt;具有给定的 protoas[[Prototype]]和可选属性描述符&lt;br&gt;Object.getPrototypeOf(OBJ)--返回[[Prototype]]的 obj&lt;br&gt;Object.setPrototypeOf(obj, proto)--将 [[Prototype]] 的 obj 设置为 proto" style="text;html=1;resizable=0;points=[];autosize=1;align=left;verticalAlign=top;spacingTop=-4;" parent="52uRmhoQFjtCpDWTwTk8-1" vertex="1">
          <mxGeometry x="323" y="740" width="380" height="60" as="geometry"/>
        </mxCell>
        <mxCell id="bgx9efy61ssV66Z0BemA-9" value="Object.keys(obj)/Object.values(obj)/Object.entries(obj)--返回可枚举的自身字符串属性名称/&lt;br&gt;值/键值对的数组&lt;br&gt;" style="text;html=1;resizable=0;points=[];autosize=1;align=left;verticalAlign=top;spacingTop=-4;" parent="52uRmhoQFjtCpDWTwTk8-1" vertex="1">
          <mxGeometry x="317" y="676.5" width="490" height="30" as="geometry"/>
        </mxCell>
        <mxCell id="bgx9efy61ssV66Z0BemA-12" value="Reflect.ownKeys(obj)--返回所有自己的键的数组" style="text;html=1;resizable=0;points=[];autosize=1;align=left;verticalAlign=top;spacingTop=-4;" parent="52uRmhoQFjtCpDWTwTk8-1" vertex="1">
          <mxGeometry x="320" y="713.5" width="270" height="20" as="geometry"/>
        </mxCell>
        <mxCell id="g4EE4_HVE2trmpGd-t0b-1" value="promise.all--接收一个由多个 promise 组成的 promise 数组，返回一个新的 promise。&lt;br&gt;只有都是 resolve 才会正常返回，有一个 reject，会被立刻拒绝并抛出错误，其他 promise&lt;br&gt;结果会被忽略" style="text;html=1;resizable=0;points=[];autosize=1;align=left;verticalAlign=top;spacingTop=-4;" parent="52uRmhoQFjtCpDWTwTk8-1" vertex="1">
          <mxGeometry x="320" y="470" width="490" height="40" as="geometry"/>
        </mxCell>
        <mxCell id="g4EE4_HVE2trmpGd-t0b-3" value="Promise.allsetted--等待 promise 数组的所有 resolve 和 reject，以对象数组的形式返回结果" style="text;html=1;resizable=0;points=[];autosize=1;align=left;verticalAlign=top;spacingTop=-4;" parent="52uRmhoQFjtCpDWTwTk8-1" vertex="1">
          <mxGeometry x="320" y="450" width="490" height="20" as="geometry"/>
        </mxCell>
        <mxCell id="g4EE4_HVE2trmpGd-t0b-4" value="Promise.race--接收一个promise 数组，返回第一个 resolve 或者 reject，其他 promise 被忽略" style="text;html=1;resizable=0;points=[];autosize=1;align=left;verticalAlign=top;spacingTop=-4;" parent="52uRmhoQFjtCpDWTwTk8-1" vertex="1">
          <mxGeometry x="310" y="542.5" width="510" height="20" as="geometry"/>
        </mxCell>
        <mxCell id="g4EE4_HVE2trmpGd-t0b-7" value="Reflect.get 读取对象属性。Reflect.set 写入对象属性，成功返回 true，否则返回 false" style="text;html=1;resizable=0;points=[];autosize=1;align=left;verticalAlign=top;spacingTop=-4;" parent="52uRmhoQFjtCpDWTwTk8-1" vertex="1">
          <mxGeometry x="320" y="360" width="460" height="20" as="geometry"/>
        </mxCell>
        <mxCell id="PrAc4wQzctQxmWvNHKKM-0" value="Symbol.for(key)--通过名字返回字符串、Symbol.keyFor(sym)--通过字符串返回名字。&lt;br&gt;二者是相反操作" style="text;html=1;" vertex="1" parent="52uRmhoQFjtCpDWTwTk8-1">
          <mxGeometry x="310" y="556" width="510" height="30" as="geometry"/>
        </mxCell>
        <mxCell id="h4xeZK4RYlz9LL3OB-UT-0" value="str.toUppercase--返回大写字母" style="text;html=1;resizable=0;points=[];autosize=1;align=left;verticalAlign=top;spacingTop=-4;" vertex="1" parent="52uRmhoQFjtCpDWTwTk8-1">
          <mxGeometry x="323" y="800" width="180" height="20" as="geometry"/>
        </mxCell>
        <mxCell id="h4xeZK4RYlz9LL3OB-UT-1" value="n.toFixed(2)--将对象 n 四舍五入小数点后两位" style="text;html=1;resizable=0;points=[];autosize=1;align=left;verticalAlign=top;spacingTop=-4;" vertex="1" parent="52uRmhoQFjtCpDWTwTk8-1">
          <mxGeometry x="323" y="820" width="260" height="20" as="geometry"/>
        </mxCell>
        <mxCell id="h4xeZK4RYlz9LL3OB-UT-4" value="str.indexOf（substr，pos)--从 str 给定 pos 的位置开始查找&amp;nbsp;substr，返回找到的匹配的位置，&lt;br&gt;否则返回 -1&lt;br&gt;str.lastIndexOf（substr，position），从字符串的末尾开始搜索。将以相反的顺序列出这些事件" style="text;html=1;" vertex="1" parent="52uRmhoQFjtCpDWTwTk8-1">
          <mxGeometry x="320" y="840.5" width="503" height="59" as="geometry"/>
        </mxCell>
        <mxCell id="h4xeZK4RYlz9LL3OB-UT-7" value="str.includes(substr, pops)---str 中包含 substr 返回 true，否则返回 false" style="text;html=1;resizable=0;points=[];autosize=1;align=left;verticalAlign=top;spacingTop=-4;" vertex="1" parent="52uRmhoQFjtCpDWTwTk8-1">
          <mxGeometry x="323" y="889.5" width="390" height="20" as="geometry"/>
        </mxCell>
        <mxCell id="h4xeZK4RYlz9LL3OB-UT-9" value="str.startsWith--substr 在头部 true, 不在 false。str.endsWith--substr 在 str 尾部 true，不在 false" style="text;html=1;resizable=0;points=[];autosize=1;align=left;verticalAlign=top;spacingTop=-4;" vertex="1" parent="52uRmhoQFjtCpDWTwTk8-1">
          <mxGeometry x="315" y="909.5" width="510" height="20" as="geometry"/>
        </mxCell>
        <mxCell id="h4xeZK4RYlz9LL3OB-UT-11" value="str.substring(start [, end])---substring 在 str 的开始位置到结束位置&lt;br&gt;str.substr(start [, length])---substring 在 str 的开始位置截取几个长度" style="text;html=1;resizable=0;points=[];autosize=1;align=left;verticalAlign=top;spacingTop=-4;" vertex="1" parent="52uRmhoQFjtCpDWTwTk8-1">
          <mxGeometry x="315" y="929.5" width="370" height="30" as="geometry"/>
        </mxCell>
        <mxCell id="h4xeZK4RYlz9LL3OB-UT-14" value="str.locale.Compare(str2)---相等返回 0。不相等打印 -1，返回符合条件的值" style="text;html=1;resizable=0;points=[];autosize=1;align=left;verticalAlign=top;spacingTop=-4;" vertex="1" parent="52uRmhoQFjtCpDWTwTk8-1">
          <mxGeometry x="317" y="965" width="410" height="20" as="geometry"/>
        </mxCell>
        <mxCell id="h4xeZK4RYlz9LL3OB-UT-16" value="str.codePointAt(pop)/str.codePointAt---返回字符串位置的 ASCII/Unicode, 超过返回 undefined&lt;br&gt;String.fromCodePoint(code)/String.fromCharCode---返回&amp;nbsp;ASCII/Unicode 对应的字符串" style="text;html=1;" vertex="1" parent="52uRmhoQFjtCpDWTwTk8-1">
          <mxGeometry x="318.5" y="975" width="503" height="30" as="geometry"/>
        </mxCell>
        <mxCell id="h4xeZK4RYlz9LL3OB-UT-18" value="str.nomalize---将字符串转换成单个 normal" style="text;html=1;resizable=0;points=[];autosize=1;align=left;verticalAlign=top;spacingTop=-4;" vertex="1" parent="52uRmhoQFjtCpDWTwTk8-1">
          <mxGeometry x="320" y="1010" width="240" height="20" as="geometry"/>
        </mxCell>
      </root>
    </mxGraphModel>
  </diagram>
  <diagram id="QVfynxVT6b11GOopPgFf" name="Function">
    <mxGraphModel dx="953" dy="524" grid="1" gridSize="10" guides="1" tooltips="1" connect="1" arrows="1" fold="1" page="1" pageScale="1" pageWidth="827" pageHeight="1169" math="0" shadow="0">
      <root>
        <mxCell id="4n6Ee6nQYyNnLJOlIvlZ-0"/>
        <mxCell id="4n6Ee6nQYyNnLJOlIvlZ-1" parent="4n6Ee6nQYyNnLJOlIvlZ-0"/>
        <mxCell id="rxuVogYrNo2SvjMxAUNl-0" style="edgeStyle=orthogonalEdgeStyle;rounded=0;orthogonalLoop=1;jettySize=auto;html=1;exitX=1;exitY=0.25;exitDx=0;exitDy=0;entryX=0;entryY=0.5;entryDx=0;entryDy=0;dashed=1;" parent="4n6Ee6nQYyNnLJOlIvlZ-1" source="rxuVogYrNo2SvjMxAUNl-4" target="rxuVogYrNo2SvjMxAUNl-5" edge="1">
          <mxGeometry relative="1" as="geometry">
            <Array as="points">
              <mxPoint x="150" y="235"/>
              <mxPoint x="150" y="50"/>
            </Array>
          </mxGeometry>
        </mxCell>
        <mxCell id="rxuVogYrNo2SvjMxAUNl-1" style="edgeStyle=orthogonalEdgeStyle;rounded=0;orthogonalLoop=1;jettySize=auto;html=1;exitX=1;exitY=0.25;exitDx=0;exitDy=0;entryX=0;entryY=0.5;entryDx=0;entryDy=0;dashed=1;" parent="4n6Ee6nQYyNnLJOlIvlZ-1" source="rxuVogYrNo2SvjMxAUNl-4" target="rxuVogYrNo2SvjMxAUNl-7" edge="1">
          <mxGeometry relative="1" as="geometry"/>
        </mxCell>
        <mxCell id="rxuVogYrNo2SvjMxAUNl-2" style="edgeStyle=orthogonalEdgeStyle;rounded=0;orthogonalLoop=1;jettySize=auto;html=1;exitX=1;exitY=0.5;exitDx=0;exitDy=0;entryX=0;entryY=0.5;entryDx=0;entryDy=0;dashed=1;" parent="4n6Ee6nQYyNnLJOlIvlZ-1" source="rxuVogYrNo2SvjMxAUNl-4" target="rxuVogYrNo2SvjMxAUNl-6" edge="1">
          <mxGeometry relative="1" as="geometry"/>
        </mxCell>
        <mxCell id="rxuVogYrNo2SvjMxAUNl-3" style="edgeStyle=orthogonalEdgeStyle;rounded=0;orthogonalLoop=1;jettySize=auto;html=1;exitX=1;exitY=0.75;exitDx=0;exitDy=0;entryX=0;entryY=0.5;entryDx=0;entryDy=0;dashed=1;" parent="4n6Ee6nQYyNnLJOlIvlZ-1" source="rxuVogYrNo2SvjMxAUNl-4" target="rxuVogYrNo2SvjMxAUNl-8" edge="1">
          <mxGeometry relative="1" as="geometry"/>
        </mxCell>
        <mxCell id="x_YeTKeKB1OzcmwfRHz2-1" style="edgeStyle=orthogonalEdgeStyle;rounded=0;orthogonalLoop=1;jettySize=auto;html=1;exitX=1;exitY=0.75;exitDx=0;exitDy=0;entryX=0;entryY=0.5;entryDx=0;entryDy=0;dashed=1;" parent="4n6Ee6nQYyNnLJOlIvlZ-1" source="rxuVogYrNo2SvjMxAUNl-4" target="x_YeTKeKB1OzcmwfRHz2-0" edge="1">
          <mxGeometry relative="1" as="geometry">
            <Array as="points">
              <mxPoint x="180" y="265"/>
              <mxPoint x="180" y="490"/>
            </Array>
          </mxGeometry>
        </mxCell>
        <mxCell id="x_YeTKeKB1OzcmwfRHz2-2" style="edgeStyle=orthogonalEdgeStyle;rounded=0;orthogonalLoop=1;jettySize=auto;html=1;exitX=1;exitY=0.75;exitDx=0;exitDy=0;entryX=0;entryY=0.5;entryDx=0;entryDy=0;dashed=1;" parent="4n6Ee6nQYyNnLJOlIvlZ-1" source="rxuVogYrNo2SvjMxAUNl-4" target="-h8mTPIt2cJJiGTmCFNC-0" edge="1">
          <mxGeometry relative="1" as="geometry">
            <Array as="points">
              <mxPoint x="160" y="265"/>
              <mxPoint x="160" y="614"/>
            </Array>
          </mxGeometry>
        </mxCell>
        <mxCell id="rxuVogYrNo2SvjMxAUNl-4" value="Function" style="rounded=1;whiteSpace=wrap;html=1;" parent="4n6Ee6nQYyNnLJOlIvlZ-1" vertex="1">
          <mxGeometry x="80" y="220" width="60" height="60" as="geometry"/>
        </mxCell>
        <mxCell id="rxuVogYrNo2SvjMxAUNl-5" value="modify" style="rounded=1;whiteSpace=wrap;html=1;" parent="4n6Ee6nQYyNnLJOlIvlZ-1" vertex="1">
          <mxGeometry x="200" y="20" width="60" height="60" as="geometry"/>
        </mxCell>
        <mxCell id="rxuVogYrNo2SvjMxAUNl-6" value="clone/&lt;br&gt;copy" style="rounded=1;whiteSpace=wrap;html=1;" parent="4n6Ee6nQYyNnLJOlIvlZ-1" vertex="1">
          <mxGeometry x="200" y="220" width="60" height="60" as="geometry"/>
        </mxCell>
        <mxCell id="rxuVogYrNo2SvjMxAUNl-7" value="delete" style="rounded=1;whiteSpace=wrap;html=1;" parent="4n6Ee6nQYyNnLJOlIvlZ-1" vertex="1">
          <mxGeometry x="200" y="120" width="60" height="60" as="geometry"/>
        </mxCell>
        <mxCell id="rxuVogYrNo2SvjMxAUNl-8" value="access&lt;br&gt;permiss" style="rounded=1;whiteSpace=wrap;html=1;" parent="4n6Ee6nQYyNnLJOlIvlZ-1" vertex="1">
          <mxGeometry x="200" y="330" width="60" height="60" as="geometry"/>
        </mxCell>
        <mxCell id="xbQQ3nvMya7D1h96zskT-1" style="edgeStyle=orthogonalEdgeStyle;rounded=0;orthogonalLoop=1;jettySize=auto;html=1;exitX=1;exitY=0.25;exitDx=0;exitDy=0;entryX=-0.005;entryY=0.55;entryDx=0;entryDy=0;entryPerimeter=0;dashed=1;" parent="4n6Ee6nQYyNnLJOlIvlZ-1" source="-h8mTPIt2cJJiGTmCFNC-0" target="x_YeTKeKB1OzcmwfRHz2-5" edge="1">
          <mxGeometry relative="1" as="geometry"/>
        </mxCell>
        <mxCell id="xbQQ3nvMya7D1h96zskT-2" style="edgeStyle=orthogonalEdgeStyle;rounded=0;orthogonalLoop=1;jettySize=auto;html=1;exitX=1;exitY=0.5;exitDx=0;exitDy=0;entryX=-0.006;entryY=0.5;entryDx=0;entryDy=0;entryPerimeter=0;dashed=1;" parent="4n6Ee6nQYyNnLJOlIvlZ-1" source="-h8mTPIt2cJJiGTmCFNC-0" target="x_YeTKeKB1OzcmwfRHz2-3" edge="1">
          <mxGeometry relative="1" as="geometry"/>
        </mxCell>
        <mxCell id="xbQQ3nvMya7D1h96zskT-3" style="edgeStyle=orthogonalEdgeStyle;rounded=0;orthogonalLoop=1;jettySize=auto;html=1;exitX=1;exitY=0.5;exitDx=0;exitDy=0;entryX=-0.006;entryY=0.6;entryDx=0;entryDy=0;entryPerimeter=0;dashed=1;" parent="4n6Ee6nQYyNnLJOlIvlZ-1" source="-h8mTPIt2cJJiGTmCFNC-0" target="x_YeTKeKB1OzcmwfRHz2-4" edge="1">
          <mxGeometry relative="1" as="geometry"/>
        </mxCell>
        <mxCell id="xbQQ3nvMya7D1h96zskT-4" style="edgeStyle=orthogonalEdgeStyle;rounded=0;orthogonalLoop=1;jettySize=auto;html=1;exitX=1;exitY=0.5;exitDx=0;exitDy=0;entryX=0;entryY=0.55;entryDx=0;entryDy=0;entryPerimeter=0;dashed=1;" parent="4n6Ee6nQYyNnLJOlIvlZ-1" source="-h8mTPIt2cJJiGTmCFNC-0" target="xbQQ3nvMya7D1h96zskT-0" edge="1">
          <mxGeometry relative="1" as="geometry"/>
        </mxCell>
        <mxCell id="4F2EJo-vqhTW2cVfqV_2-2" style="edgeStyle=orthogonalEdgeStyle;rounded=0;orthogonalLoop=1;jettySize=auto;html=1;exitX=1;exitY=0.75;exitDx=0;exitDy=0;entryX=0;entryY=0.55;entryDx=0;entryDy=0;entryPerimeter=0;dashed=1;" parent="4n6Ee6nQYyNnLJOlIvlZ-1" source="-h8mTPIt2cJJiGTmCFNC-0" target="xbQQ3nvMya7D1h96zskT-5" edge="1">
          <mxGeometry relative="1" as="geometry"/>
        </mxCell>
        <mxCell id="4F2EJo-vqhTW2cVfqV_2-3" style="edgeStyle=orthogonalEdgeStyle;rounded=0;orthogonalLoop=1;jettySize=auto;html=1;exitX=1;exitY=0.75;exitDx=0;exitDy=0;entryX=0;entryY=0.5;entryDx=0;entryDy=0;dashed=1;" parent="4n6Ee6nQYyNnLJOlIvlZ-1" source="-h8mTPIt2cJJiGTmCFNC-0" target="8de6_AszlgomDt7oGhwU-0" edge="1">
          <mxGeometry relative="1" as="geometry"/>
        </mxCell>
        <mxCell id="4F2EJo-vqhTW2cVfqV_2-4" style="edgeStyle=orthogonalEdgeStyle;rounded=0;orthogonalLoop=1;jettySize=auto;html=1;exitX=1;exitY=0.75;exitDx=0;exitDy=0;entryX=0;entryY=0.5;entryDx=0;entryDy=0;dashed=1;" parent="4n6Ee6nQYyNnLJOlIvlZ-1" source="-h8mTPIt2cJJiGTmCFNC-0" target="4F2EJo-vqhTW2cVfqV_2-0" edge="1">
          <mxGeometry relative="1" as="geometry"/>
        </mxCell>
        <mxCell id="4F2EJo-vqhTW2cVfqV_2-5" style="edgeStyle=orthogonalEdgeStyle;rounded=0;orthogonalLoop=1;jettySize=auto;html=1;exitX=1;exitY=0.75;exitDx=0;exitDy=0;entryX=0;entryY=0.5;entryDx=0;entryDy=0;dashed=1;" parent="4n6Ee6nQYyNnLJOlIvlZ-1" source="-h8mTPIt2cJJiGTmCFNC-0" target="4F2EJo-vqhTW2cVfqV_2-1" edge="1">
          <mxGeometry relative="1" as="geometry"/>
        </mxCell>
        <mxCell id="-h8mTPIt2cJJiGTmCFNC-0" value="transform" style="rounded=1;whiteSpace=wrap;html=1;" parent="4n6Ee6nQYyNnLJOlIvlZ-1" vertex="1">
          <mxGeometry x="200" y="584" width="60" height="60" as="geometry"/>
        </mxCell>
        <mxCell id="_6xoXZI2d5iuMKEyTXGr-1" style="edgeStyle=orthogonalEdgeStyle;rounded=0;orthogonalLoop=1;jettySize=auto;html=1;exitX=1;exitY=0.5;exitDx=0;exitDy=0;dashed=1;" parent="4n6Ee6nQYyNnLJOlIvlZ-1" source="x_YeTKeKB1OzcmwfRHz2-0" target="_6xoXZI2d5iuMKEyTXGr-0" edge="1">
          <mxGeometry relative="1" as="geometry"/>
        </mxCell>
        <mxCell id="x_YeTKeKB1OzcmwfRHz2-0" value="traversals" style="rounded=1;whiteSpace=wrap;html=1;" parent="4n6Ee6nQYyNnLJOlIvlZ-1" vertex="1">
          <mxGeometry x="200" y="460" width="60" height="60" as="geometry"/>
        </mxCell>
        <mxCell id="x_YeTKeKB1OzcmwfRHz2-3" value="function.call--允许调用显式的函数 this，需要一个参数列表" style="text;html=1;resizable=0;points=[];autosize=1;align=left;verticalAlign=top;spacingTop=-4;" parent="4n6Ee6nQYyNnLJOlIvlZ-1" vertex="1">
          <mxGeometry x="310" y="604" width="320" height="20" as="geometry"/>
        </mxCell>
        <mxCell id="x_YeTKeKB1OzcmwfRHz2-4" value="function.apply--this=context 并使用带有类似数组的对象作为参数列表，需要一个类似数组的对象" style="text;html=1;resizable=0;points=[];autosize=1;align=left;verticalAlign=top;spacingTop=-4;" parent="4n6Ee6nQYyNnLJOlIvlZ-1" vertex="1">
          <mxGeometry x="310" y="624" width="530" height="20" as="geometry"/>
        </mxCell>
        <mxCell id="x_YeTKeKB1OzcmwfRHz2-5" value="function.prototype.toString--函数序列化" style="text;html=1;resizable=0;points=[];autosize=1;align=left;verticalAlign=top;spacingTop=-4;" parent="4n6Ee6nQYyNnLJOlIvlZ-1" vertex="1">
          <mxGeometry x="310" y="584" width="220" height="20" as="geometry"/>
        </mxCell>
        <mxCell id="xbQQ3nvMya7D1h96zskT-0" value="function.caller--全局下调用 f，返回 null, 另一个函数内调用 f, f,caller 指向调用它的函数" style="text;html=1;resizable=0;points=[];autosize=1;align=left;verticalAlign=top;spacingTop=-4;" parent="4n6Ee6nQYyNnLJOlIvlZ-1" vertex="1">
          <mxGeometry x="310" y="644" width="470" height="20" as="geometry"/>
        </mxCell>
        <mxCell id="xbQQ3nvMya7D1h96zskT-5" value="function.length--函数形参的个数" style="text;html=1;resizable=0;points=[];autosize=1;align=left;verticalAlign=top;spacingTop=-4;" parent="4n6Ee6nQYyNnLJOlIvlZ-1" vertex="1">
          <mxGeometry x="310" y="664" width="190" height="20" as="geometry"/>
        </mxCell>
        <mxCell id="8de6_AszlgomDt7oGhwU-0" value="toString-&gt; valueOf 字符串显示， valueOf -&gt; toString 字符串以外的其他内容显示" style="text;html=1;" parent="4n6Ee6nQYyNnLJOlIvlZ-1" vertex="1">
          <mxGeometry x="310" y="680" width="450" height="30" as="geometry"/>
        </mxCell>
        <mxCell id="4F2EJo-vqhTW2cVfqV_2-0" value="setTimeout 将函数的执行推迟到一段时间之后再执行" style="text;html=1;" parent="4n6Ee6nQYyNnLJOlIvlZ-1" vertex="1">
          <mxGeometry x="310" y="700" width="300" height="30" as="geometry"/>
        </mxCell>
        <mxCell id="4F2EJo-vqhTW2cVfqV_2-1" value="setInterval 让函数间隔一定时间周期性执行" style="text;html=1;" parent="4n6Ee6nQYyNnLJOlIvlZ-1" vertex="1">
          <mxGeometry x="310" y="720" width="250" height="30" as="geometry"/>
        </mxCell>
        <mxCell id="4F2EJo-vqhTW2cVfqV_2-6" value="func.bind--函数的封装、绑定" style="text;html=1;resizable=0;points=[];autosize=1;align=left;verticalAlign=top;spacingTop=-4;" parent="4n6Ee6nQYyNnLJOlIvlZ-1" vertex="1">
          <mxGeometry x="310" y="740" width="170" height="20" as="geometry"/>
        </mxCell>
        <mxCell id="_6xoXZI2d5iuMKEyTXGr-0" value="function.join--将一个数组(或类数组对象)的所有元素连接成一个字符串并返回这个字符串" style="text;html=1;resizable=0;points=[];autosize=1;align=left;verticalAlign=top;spacingTop=-4;" parent="4n6Ee6nQYyNnLJOlIvlZ-1" vertex="1">
          <mxGeometry x="310" y="480" width="480" height="20" as="geometry"/>
        </mxCell>
      </root>
    </mxGraphModel>
  </diagram>
  <diagram id="bG8S9gKHf8z78uEhlcRx" name="obj-mind-map">
    <mxGraphModel dx="953" dy="524" grid="1" gridSize="10" guides="1" tooltips="1" connect="1" arrows="1" fold="1" page="1" pageScale="1" pageWidth="827" pageHeight="1169" math="0" shadow="0">
      <root>
        <mxCell id="kHiQbp2h0eTTcR593dT7-0"/>
        <mxCell id="kHiQbp2h0eTTcR593dT7-1" parent="kHiQbp2h0eTTcR593dT7-0"/>
        <mxCell id="Cm6IhsLhMZ9YSqBsD-Fc-43" value="&amp;nbsp;" style="rounded=1;whiteSpace=wrap;html=1;strokeColor=#FF3333;fontColor=#FF3333;" vertex="1" parent="kHiQbp2h0eTTcR593dT7-1">
          <mxGeometry x="170" y="20" width="80" height="230" as="geometry"/>
        </mxCell>
        <mxCell id="Cm6IhsLhMZ9YSqBsD-Fc-3" style="edgeStyle=orthogonalEdgeStyle;rounded=0;orthogonalLoop=1;jettySize=auto;html=1;exitX=0.5;exitY=1;exitDx=0;exitDy=0;entryX=0.5;entryY=0;entryDx=0;entryDy=0;dashed=1;strokeColor=#FF0000;fontColor=#FF0000;" edge="1" parent="kHiQbp2h0eTTcR593dT7-1" source="-HQIM3sMwrEII0bhXvwp-0" target="Cm6IhsLhMZ9YSqBsD-Fc-1">
          <mxGeometry relative="1" as="geometry"/>
        </mxCell>
        <mxCell id="Cm6IhsLhMZ9YSqBsD-Fc-4" style="edgeStyle=orthogonalEdgeStyle;rounded=0;orthogonalLoop=1;jettySize=auto;html=1;exitX=0.25;exitY=1;exitDx=0;exitDy=0;entryX=0.5;entryY=0;entryDx=0;entryDy=0;dashed=1;strokeColor=#FF0000;fontColor=#FF0000;" edge="1" parent="kHiQbp2h0eTTcR593dT7-1" source="-HQIM3sMwrEII0bhXvwp-0" target="Cm6IhsLhMZ9YSqBsD-Fc-0">
          <mxGeometry relative="1" as="geometry"/>
        </mxCell>
        <mxCell id="Cm6IhsLhMZ9YSqBsD-Fc-10" style="edgeStyle=orthogonalEdgeStyle;rounded=0;orthogonalLoop=1;jettySize=auto;html=1;exitX=0.75;exitY=1;exitDx=0;exitDy=0;dashed=1;strokeColor=#FF00FF;fontColor=#FF00FF;entryX=0.5;entryY=0;entryDx=0;entryDy=0;" edge="1" parent="kHiQbp2h0eTTcR593dT7-1" source="-HQIM3sMwrEII0bhXvwp-0" target="Cm6IhsLhMZ9YSqBsD-Fc-2">
          <mxGeometry relative="1" as="geometry">
            <Array as="points">
              <mxPoint x="508" y="270"/>
              <mxPoint x="790" y="270"/>
            </Array>
          </mxGeometry>
        </mxCell>
        <mxCell id="Cm6IhsLhMZ9YSqBsD-Fc-11" style="edgeStyle=orthogonalEdgeStyle;rounded=0;orthogonalLoop=1;jettySize=auto;html=1;exitX=0.75;exitY=1;exitDx=0;exitDy=0;entryX=0.5;entryY=0;entryDx=0;entryDy=0;dashed=1;strokeColor=#FF00FF;fontColor=#FF00FF;" edge="1" parent="kHiQbp2h0eTTcR593dT7-1" source="-HQIM3sMwrEII0bhXvwp-0" target="Cm6IhsLhMZ9YSqBsD-Fc-5">
          <mxGeometry relative="1" as="geometry">
            <Array as="points">
              <mxPoint x="508" y="270"/>
              <mxPoint x="870" y="270"/>
            </Array>
          </mxGeometry>
        </mxCell>
        <mxCell id="Cm6IhsLhMZ9YSqBsD-Fc-21" style="edgeStyle=orthogonalEdgeStyle;rounded=0;orthogonalLoop=1;jettySize=auto;html=1;exitX=0.75;exitY=1;exitDx=0;exitDy=0;entryX=0.5;entryY=0;entryDx=0;entryDy=0;dashed=1;strokeColor=#FF00FF;fontColor=#FF00FF;" edge="1" parent="kHiQbp2h0eTTcR593dT7-1" source="-HQIM3sMwrEII0bhXvwp-0" target="Cm6IhsLhMZ9YSqBsD-Fc-13">
          <mxGeometry relative="1" as="geometry">
            <Array as="points">
              <mxPoint x="508" y="270"/>
              <mxPoint x="710" y="270"/>
            </Array>
          </mxGeometry>
        </mxCell>
        <mxCell id="Cm6IhsLhMZ9YSqBsD-Fc-59" style="edgeStyle=orthogonalEdgeStyle;rounded=0;orthogonalLoop=1;jettySize=auto;html=1;exitX=0.75;exitY=1;exitDx=0;exitDy=0;entryX=0.5;entryY=0;entryDx=0;entryDy=0;dashed=1;strokeColor=#FF00FF;fontColor=#FF00FF;" edge="1" parent="kHiQbp2h0eTTcR593dT7-1" source="-HQIM3sMwrEII0bhXvwp-0" target="Cm6IhsLhMZ9YSqBsD-Fc-55">
          <mxGeometry relative="1" as="geometry">
            <Array as="points">
              <mxPoint x="508" y="270"/>
              <mxPoint x="947" y="270"/>
            </Array>
          </mxGeometry>
        </mxCell>
        <mxCell id="-HQIM3sMwrEII0bhXvwp-0" value="object" style="rounded=1;whiteSpace=wrap;html=1;strokeColor=#FF3333;fontColor=#FF3333;" parent="kHiQbp2h0eTTcR593dT7-1" vertex="1">
          <mxGeometry x="463" y="180" width="60" height="60" as="geometry"/>
        </mxCell>
        <mxCell id="Cm6IhsLhMZ9YSqBsD-Fc-65" style="edgeStyle=orthogonalEdgeStyle;rounded=0;orthogonalLoop=1;jettySize=auto;html=1;exitX=0.25;exitY=1;exitDx=0;exitDy=0;entryX=0.5;entryY=0;entryDx=0;entryDy=0;dashed=1;strokeColor=#FF00FF;fontColor=#FF00FF;" edge="1" parent="kHiQbp2h0eTTcR593dT7-1" source="Cm6IhsLhMZ9YSqBsD-Fc-0" target="Cm6IhsLhMZ9YSqBsD-Fc-63">
          <mxGeometry relative="1" as="geometry"/>
        </mxCell>
        <mxCell id="Cm6IhsLhMZ9YSqBsD-Fc-66" style="edgeStyle=orthogonalEdgeStyle;rounded=0;orthogonalLoop=1;jettySize=auto;html=1;exitX=0.75;exitY=1;exitDx=0;exitDy=0;entryX=0.5;entryY=0;entryDx=0;entryDy=0;dashed=1;strokeColor=#FF00FF;fontColor=#FF00FF;" edge="1" parent="kHiQbp2h0eTTcR593dT7-1" source="Cm6IhsLhMZ9YSqBsD-Fc-0" target="Cm6IhsLhMZ9YSqBsD-Fc-64">
          <mxGeometry relative="1" as="geometry"/>
        </mxCell>
        <mxCell id="Cm6IhsLhMZ9YSqBsD-Fc-0" value="array" style="rounded=1;whiteSpace=wrap;html=1;fontColor=#FF0080;strokeColor=#FF0080;" vertex="1" parent="kHiQbp2h0eTTcR593dT7-1">
          <mxGeometry x="80" y="300" width="60" height="60" as="geometry"/>
        </mxCell>
        <mxCell id="Cm6IhsLhMZ9YSqBsD-Fc-8" style="edgeStyle=orthogonalEdgeStyle;rounded=0;orthogonalLoop=1;jettySize=auto;html=1;exitX=0.25;exitY=1;exitDx=0;exitDy=0;entryX=0.5;entryY=0;entryDx=0;entryDy=0;dashed=1;strokeColor=#FF00FF;fontColor=#FF00FF;" edge="1" parent="kHiQbp2h0eTTcR593dT7-1" source="Cm6IhsLhMZ9YSqBsD-Fc-1" target="Cm6IhsLhMZ9YSqBsD-Fc-6">
          <mxGeometry relative="1" as="geometry"/>
        </mxCell>
        <mxCell id="Cm6IhsLhMZ9YSqBsD-Fc-9" style="edgeStyle=orthogonalEdgeStyle;rounded=0;orthogonalLoop=1;jettySize=auto;html=1;exitX=0.75;exitY=1;exitDx=0;exitDy=0;entryX=0.5;entryY=0;entryDx=0;entryDy=0;dashed=1;strokeColor=#FF00FF;fontColor=#FF00FF;" edge="1" parent="kHiQbp2h0eTTcR593dT7-1" source="Cm6IhsLhMZ9YSqBsD-Fc-1" target="Cm6IhsLhMZ9YSqBsD-Fc-7">
          <mxGeometry relative="1" as="geometry"/>
        </mxCell>
        <mxCell id="Cm6IhsLhMZ9YSqBsD-Fc-17" style="edgeStyle=orthogonalEdgeStyle;rounded=0;orthogonalLoop=1;jettySize=auto;html=1;exitX=0.5;exitY=1;exitDx=0;exitDy=0;entryX=0.5;entryY=0;entryDx=0;entryDy=0;dashed=1;strokeColor=#FF00FF;fontColor=#FF00FF;" edge="1" parent="kHiQbp2h0eTTcR593dT7-1" source="Cm6IhsLhMZ9YSqBsD-Fc-1" target="Cm6IhsLhMZ9YSqBsD-Fc-12">
          <mxGeometry relative="1" as="geometry"/>
        </mxCell>
        <mxCell id="Cm6IhsLhMZ9YSqBsD-Fc-18" style="edgeStyle=orthogonalEdgeStyle;rounded=0;orthogonalLoop=1;jettySize=auto;html=1;exitX=0.75;exitY=1;exitDx=0;exitDy=0;entryX=0.5;entryY=0;entryDx=0;entryDy=0;dashed=1;strokeColor=#FF00FF;fontColor=#FF00FF;" edge="1" parent="kHiQbp2h0eTTcR593dT7-1" source="Cm6IhsLhMZ9YSqBsD-Fc-1" target="Cm6IhsLhMZ9YSqBsD-Fc-16">
          <mxGeometry relative="1" as="geometry"/>
        </mxCell>
        <mxCell id="Cm6IhsLhMZ9YSqBsD-Fc-20" style="edgeStyle=orthogonalEdgeStyle;rounded=0;orthogonalLoop=1;jettySize=auto;html=1;exitX=0.25;exitY=1;exitDx=0;exitDy=0;entryX=0.5;entryY=0;entryDx=0;entryDy=0;dashed=1;strokeColor=#FF00FF;fontColor=#FF00FF;" edge="1" parent="kHiQbp2h0eTTcR593dT7-1" source="Cm6IhsLhMZ9YSqBsD-Fc-1" target="Cm6IhsLhMZ9YSqBsD-Fc-19">
          <mxGeometry relative="1" as="geometry"/>
        </mxCell>
        <mxCell id="Cm6IhsLhMZ9YSqBsD-Fc-39" style="edgeStyle=orthogonalEdgeStyle;rounded=0;orthogonalLoop=1;jettySize=auto;html=1;exitX=0.25;exitY=1;exitDx=0;exitDy=0;entryX=0.5;entryY=0;entryDx=0;entryDy=0;dashed=1;strokeColor=#FF00FF;fontColor=#FF00FF;" edge="1" parent="kHiQbp2h0eTTcR593dT7-1" source="Cm6IhsLhMZ9YSqBsD-Fc-1" target="Cm6IhsLhMZ9YSqBsD-Fc-38">
          <mxGeometry relative="1" as="geometry"/>
        </mxCell>
        <mxCell id="Cm6IhsLhMZ9YSqBsD-Fc-1" value="func" style="rounded=1;whiteSpace=wrap;html=1;fontColor=#FF0080;strokeColor=#FF0080;" vertex="1" parent="kHiQbp2h0eTTcR593dT7-1">
          <mxGeometry x="463" y="300" width="60" height="60" as="geometry"/>
        </mxCell>
        <mxCell id="Cm6IhsLhMZ9YSqBsD-Fc-2" value="prototype" style="rounded=1;whiteSpace=wrap;html=1;" vertex="1" parent="kHiQbp2h0eTTcR593dT7-1">
          <mxGeometry x="760" y="420" width="60" height="60" as="geometry"/>
        </mxCell>
        <mxCell id="Cm6IhsLhMZ9YSqBsD-Fc-5" value="this" style="rounded=1;whiteSpace=wrap;html=1;" vertex="1" parent="kHiQbp2h0eTTcR593dT7-1">
          <mxGeometry x="840" y="420" width="60" height="60" as="geometry"/>
        </mxCell>
        <mxCell id="Cm6IhsLhMZ9YSqBsD-Fc-6" value="callback" style="rounded=1;whiteSpace=wrap;html=1;" vertex="1" parent="kHiQbp2h0eTTcR593dT7-1">
          <mxGeometry x="386" y="420" width="60" height="60" as="geometry"/>
        </mxCell>
        <mxCell id="Cm6IhsLhMZ9YSqBsD-Fc-7" value="arrow" style="rounded=1;whiteSpace=wrap;html=1;" vertex="1" parent="kHiQbp2h0eTTcR593dT7-1">
          <mxGeometry x="540" y="420" width="60" height="60" as="geometry"/>
        </mxCell>
        <mxCell id="Cm6IhsLhMZ9YSqBsD-Fc-15" style="edgeStyle=orthogonalEdgeStyle;rounded=0;orthogonalLoop=1;jettySize=auto;html=1;exitX=0.5;exitY=1;exitDx=0;exitDy=0;entryX=0.5;entryY=0;entryDx=0;entryDy=0;dashed=1;strokeColor=#1A1A1A;fontColor=#1A1A1A;" edge="1" parent="kHiQbp2h0eTTcR593dT7-1" source="Cm6IhsLhMZ9YSqBsD-Fc-12" target="Cm6IhsLhMZ9YSqBsD-Fc-14">
          <mxGeometry relative="1" as="geometry"/>
        </mxCell>
        <mxCell id="Cm6IhsLhMZ9YSqBsD-Fc-48" style="edgeStyle=orthogonalEdgeStyle;rounded=0;orthogonalLoop=1;jettySize=auto;html=1;exitX=0.75;exitY=1;exitDx=0;exitDy=0;entryX=0;entryY=0.5;entryDx=0;entryDy=0;dashed=1;strokeColor=#1A1A1A;fontColor=#1A1A1A;" edge="1" parent="kHiQbp2h0eTTcR593dT7-1" source="Cm6IhsLhMZ9YSqBsD-Fc-12" target="Cm6IhsLhMZ9YSqBsD-Fc-46">
          <mxGeometry relative="1" as="geometry">
            <Array as="points">
              <mxPoint x="508" y="530"/>
              <mxPoint x="660" y="530"/>
              <mxPoint x="660" y="570"/>
            </Array>
          </mxGeometry>
        </mxCell>
        <mxCell id="Cm6IhsLhMZ9YSqBsD-Fc-12" value="async" style="rounded=1;whiteSpace=wrap;html=1;" vertex="1" parent="kHiQbp2h0eTTcR593dT7-1">
          <mxGeometry x="463" y="420" width="60" height="60" as="geometry"/>
        </mxCell>
        <mxCell id="Cm6IhsLhMZ9YSqBsD-Fc-47" style="edgeStyle=orthogonalEdgeStyle;rounded=0;orthogonalLoop=1;jettySize=auto;html=1;exitX=0.5;exitY=1;exitDx=0;exitDy=0;entryX=0.5;entryY=0;entryDx=0;entryDy=0;dashed=1;strokeColor=#1A1A1A;fontColor=#1A1A1A;" edge="1" parent="kHiQbp2h0eTTcR593dT7-1" source="Cm6IhsLhMZ9YSqBsD-Fc-13" target="Cm6IhsLhMZ9YSqBsD-Fc-46">
          <mxGeometry relative="1" as="geometry"/>
        </mxCell>
        <mxCell id="Cm6IhsLhMZ9YSqBsD-Fc-13" value="promise" style="rounded=1;whiteSpace=wrap;html=1;" vertex="1" parent="kHiQbp2h0eTTcR593dT7-1">
          <mxGeometry x="680" y="420" width="60" height="60" as="geometry"/>
        </mxCell>
        <mxCell id="Cm6IhsLhMZ9YSqBsD-Fc-14" value="await" style="rounded=1;whiteSpace=wrap;html=1;" vertex="1" parent="kHiQbp2h0eTTcR593dT7-1">
          <mxGeometry x="463" y="540" width="60" height="60" as="geometry"/>
        </mxCell>
        <mxCell id="Cm6IhsLhMZ9YSqBsD-Fc-16" value="Decorator" style="rounded=1;whiteSpace=wrap;html=1;" vertex="1" parent="kHiQbp2h0eTTcR593dT7-1">
          <mxGeometry x="610" y="420" width="60" height="60" as="geometry"/>
        </mxCell>
        <mxCell id="Cm6IhsLhMZ9YSqBsD-Fc-19" value="iterable" style="rounded=1;whiteSpace=wrap;html=1;" vertex="1" parent="kHiQbp2h0eTTcR593dT7-1">
          <mxGeometry x="313" y="420" width="60" height="60" as="geometry"/>
        </mxCell>
        <mxCell id="Cm6IhsLhMZ9YSqBsD-Fc-52" style="edgeStyle=orthogonalEdgeStyle;rounded=0;orthogonalLoop=1;jettySize=auto;html=1;exitX=1;exitY=0.5;exitDx=0;exitDy=0;entryX=0;entryY=0.5;entryDx=0;entryDy=0;dashed=1;strokeColor=#FF0000;fontColor=#FF3333;" edge="1" parent="kHiQbp2h0eTTcR593dT7-1" source="Cm6IhsLhMZ9YSqBsD-Fc-24" target="-HQIM3sMwrEII0bhXvwp-0">
          <mxGeometry relative="1" as="geometry">
            <Array as="points">
              <mxPoint x="410" y="130"/>
              <mxPoint x="410" y="210"/>
            </Array>
          </mxGeometry>
        </mxCell>
        <mxCell id="Cm6IhsLhMZ9YSqBsD-Fc-24" value="cache" style="rounded=1;whiteSpace=wrap;html=1;strokeColor=#FF3333;fontColor=#FF3333;" vertex="1" parent="kHiQbp2h0eTTcR593dT7-1">
          <mxGeometry x="180" y="100" width="60" height="60" as="geometry"/>
        </mxCell>
        <mxCell id="Cm6IhsLhMZ9YSqBsD-Fc-38" value="closure" style="rounded=1;whiteSpace=wrap;html=1;" vertex="1" parent="kHiQbp2h0eTTcR593dT7-1">
          <mxGeometry x="240" y="420" width="60" height="60" as="geometry"/>
        </mxCell>
        <mxCell id="Cm6IhsLhMZ9YSqBsD-Fc-51" style="edgeStyle=orthogonalEdgeStyle;rounded=0;orthogonalLoop=1;jettySize=auto;html=1;exitX=1;exitY=0.5;exitDx=0;exitDy=0;entryX=0;entryY=0.75;entryDx=0;entryDy=0;dashed=1;strokeColor=#FF0000;fontColor=#FF3333;" edge="1" parent="kHiQbp2h0eTTcR593dT7-1" source="Cm6IhsLhMZ9YSqBsD-Fc-40" target="-HQIM3sMwrEII0bhXvwp-0">
          <mxGeometry relative="1" as="geometry"/>
        </mxCell>
        <mxCell id="Cm6IhsLhMZ9YSqBsD-Fc-40" value="proxy" style="rounded=1;whiteSpace=wrap;html=1;strokeColor=#FF3333;fontColor=#FF3333;" vertex="1" parent="kHiQbp2h0eTTcR593dT7-1">
          <mxGeometry x="180" y="180" width="60" height="60" as="geometry"/>
        </mxCell>
        <mxCell id="Cm6IhsLhMZ9YSqBsD-Fc-44" value="response" style="endArrow=classic;html=1;dashed=1;strokeColor=#FF3333;fontColor=#FF3333;entryX=-0.025;entryY=0.347;entryDx=0;entryDy=0;entryPerimeter=0;" edge="1" parent="kHiQbp2h0eTTcR593dT7-1" target="Cm6IhsLhMZ9YSqBsD-Fc-43">
          <mxGeometry width="50" height="50" relative="1" as="geometry">
            <mxPoint x="100" y="100" as="sourcePoint"/>
            <mxPoint x="190" y="620" as="targetPoint"/>
          </mxGeometry>
        </mxCell>
        <mxCell id="Cm6IhsLhMZ9YSqBsD-Fc-45" value="request" style="endArrow=classic;html=1;dashed=1;strokeColor=#FF3333;fontColor=#FF3333;exitX=0;exitY=0.624;exitDx=0;exitDy=0;exitPerimeter=0;" edge="1" parent="kHiQbp2h0eTTcR593dT7-1" source="Cm6IhsLhMZ9YSqBsD-Fc-43">
          <mxGeometry width="50" height="50" relative="1" as="geometry">
            <mxPoint x="100" y="670" as="sourcePoint"/>
            <mxPoint x="100" y="164" as="targetPoint"/>
          </mxGeometry>
        </mxCell>
        <mxCell id="Cm6IhsLhMZ9YSqBsD-Fc-46" value="then/&lt;br&gt;catch" style="rounded=1;whiteSpace=wrap;html=1;" vertex="1" parent="kHiQbp2h0eTTcR593dT7-1">
          <mxGeometry x="680" y="540" width="60" height="60" as="geometry"/>
        </mxCell>
        <mxCell id="Cm6IhsLhMZ9YSqBsD-Fc-50" style="edgeStyle=orthogonalEdgeStyle;rounded=0;orthogonalLoop=1;jettySize=auto;html=1;exitX=1;exitY=0.5;exitDx=0;exitDy=0;entryX=0;entryY=0.25;entryDx=0;entryDy=0;dashed=1;strokeColor=#FF0000;fontColor=#FF3333;" edge="1" parent="kHiQbp2h0eTTcR593dT7-1" source="Cm6IhsLhMZ9YSqBsD-Fc-49" target="-HQIM3sMwrEII0bhXvwp-0">
          <mxGeometry relative="1" as="geometry"/>
        </mxCell>
        <mxCell id="Cm6IhsLhMZ9YSqBsD-Fc-49" value="other" style="rounded=1;whiteSpace=wrap;html=1;strokeColor=#FF3333;fontColor=#FF3333;" vertex="1" parent="kHiQbp2h0eTTcR593dT7-1">
          <mxGeometry x="180" y="30" width="60" height="60" as="geometry"/>
        </mxCell>
        <mxCell id="Cm6IhsLhMZ9YSqBsD-Fc-61" style="edgeStyle=orthogonalEdgeStyle;rounded=0;orthogonalLoop=1;jettySize=auto;html=1;exitX=0;exitY=0.5;exitDx=0;exitDy=0;entryX=1;entryY=0.5;entryDx=0;entryDy=0;dashed=1;strokeColor=#FF0000;fontColor=#FF3333;" edge="1" parent="kHiQbp2h0eTTcR593dT7-1" source="Cm6IhsLhMZ9YSqBsD-Fc-53" target="Cm6IhsLhMZ9YSqBsD-Fc-0">
          <mxGeometry relative="1" as="geometry">
            <Array as="points">
              <mxPoint x="430" y="130"/>
              <mxPoint x="430" y="330"/>
            </Array>
          </mxGeometry>
        </mxCell>
        <mxCell id="Cm6IhsLhMZ9YSqBsD-Fc-53" value="stack" style="rounded=1;whiteSpace=wrap;html=1;strokeColor=#FF3333;fontColor=#FF3333;" vertex="1" parent="kHiQbp2h0eTTcR593dT7-1">
          <mxGeometry x="650" y="100" width="60" height="60" as="geometry"/>
        </mxCell>
        <mxCell id="Cm6IhsLhMZ9YSqBsD-Fc-62" style="edgeStyle=orthogonalEdgeStyle;rounded=0;orthogonalLoop=1;jettySize=auto;html=1;exitX=0.5;exitY=1;exitDx=0;exitDy=0;entryX=1;entryY=0.5;entryDx=0;entryDy=0;dashed=1;strokeColor=#FF0000;fontColor=#FF3333;" edge="1" parent="kHiQbp2h0eTTcR593dT7-1" source="Cm6IhsLhMZ9YSqBsD-Fc-54" target="Cm6IhsLhMZ9YSqBsD-Fc-0">
          <mxGeometry relative="1" as="geometry">
            <Array as="points">
              <mxPoint x="790" y="170"/>
              <mxPoint x="380" y="170"/>
              <mxPoint x="380" y="330"/>
            </Array>
          </mxGeometry>
        </mxCell>
        <mxCell id="Cm6IhsLhMZ9YSqBsD-Fc-54" value="list" style="rounded=1;whiteSpace=wrap;html=1;strokeColor=#FF3333;fontColor=#FF3333;" vertex="1" parent="kHiQbp2h0eTTcR593dT7-1">
          <mxGeometry x="760" y="100" width="60" height="60" as="geometry"/>
        </mxCell>
        <mxCell id="Cm6IhsLhMZ9YSqBsD-Fc-55" value="recursive" style="rounded=1;whiteSpace=wrap;html=1;" vertex="1" parent="kHiQbp2h0eTTcR593dT7-1">
          <mxGeometry x="917" y="420" width="60" height="60" as="geometry"/>
        </mxCell>
        <mxCell id="Cm6IhsLhMZ9YSqBsD-Fc-63" value="Read/&lt;br&gt;Write" style="rounded=1;whiteSpace=wrap;html=1;fontColor=#1A1A1A;strokeColor=#1A1A1A;" vertex="1" parent="kHiQbp2h0eTTcR593dT7-1">
          <mxGeometry x="30" y="420" width="60" height="60" as="geometry"/>
        </mxCell>
        <mxCell id="Cm6IhsLhMZ9YSqBsD-Fc-64" value="modify&lt;br&gt;delete" style="rounded=1;whiteSpace=wrap;html=1;fontColor=#1A1A1A;strokeColor=#1A1A1A;" vertex="1" parent="kHiQbp2h0eTTcR593dT7-1">
          <mxGeometry x="120" y="420" width="60" height="60" as="geometry"/>
        </mxCell>
        <mxCell id="Cm6IhsLhMZ9YSqBsD-Fc-68" value="read/write" style="endArrow=classic;html=1;dashed=1;strokeColor=#FF00FF;fontColor=#FF00FF;entryX=1;entryY=0.25;entryDx=0;entryDy=0;" edge="1" parent="kHiQbp2h0eTTcR593dT7-1" target="Cm6IhsLhMZ9YSqBsD-Fc-1">
          <mxGeometry width="50" height="50" relative="1" as="geometry">
            <mxPoint x="620" y="315" as="sourcePoint"/>
            <mxPoint x="80" y="620" as="targetPoint"/>
          </mxGeometry>
        </mxCell>
        <mxCell id="Cm6IhsLhMZ9YSqBsD-Fc-69" value="modify/delete" style="endArrow=classic;html=1;dashed=1;strokeColor=#FF00FF;fontColor=#FF00FF;entryX=1.017;entryY=0.633;entryDx=0;entryDy=0;entryPerimeter=0;" edge="1" parent="kHiQbp2h0eTTcR593dT7-1" target="Cm6IhsLhMZ9YSqBsD-Fc-1">
          <mxGeometry width="50" height="50" relative="1" as="geometry">
            <mxPoint x="620" y="338" as="sourcePoint"/>
            <mxPoint x="533" y="325" as="targetPoint"/>
          </mxGeometry>
        </mxCell>
      </root>
    </mxGraphModel>
  </diagram>
  <diagram id="IDkU1YfHRmYzzFPe-6O8" name="arr-mind-map">
    <mxGraphModel dx="953" dy="524" grid="1" gridSize="10" guides="1" tooltips="1" connect="1" arrows="1" fold="1" page="1" pageScale="1" pageWidth="827" pageHeight="1169" math="0" shadow="0">
      <root>
        <mxCell id="cKcUhV0NyoNnnDgRD-VI-0"/>
        <mxCell id="cKcUhV0NyoNnnDgRD-VI-1" parent="cKcUhV0NyoNnnDgRD-VI-0"/>
      </root>
    </mxGraphModel>
  </diagram>
  <diagram id="AgVZNGlt9Lb0bgH5qKQq" name="func-mind-map">
    <mxGraphModel dx="953" dy="524" grid="1" gridSize="10" guides="1" tooltips="1" connect="1" arrows="1" fold="1" page="1" pageScale="1" pageWidth="827" pageHeight="1169" math="0" shadow="0">
      <root>
        <mxCell id="jMFHuTAt4O0cKbeOvGjB-0"/>
        <mxCell id="jMFHuTAt4O0cKbeOvGjB-1" parent="jMFHuTAt4O0cKbeOvGjB-0"/>
      </root>
    </mxGraphModel>
  </diagram>
  <diagram id="m_uR3-r7zcZxQNzraFA9" name="object[prptotype]">
    <mxGraphModel dx="953" dy="524" grid="1" gridSize="10" guides="1" tooltips="1" connect="1" arrows="1" fold="1" page="1" pageScale="1" pageWidth="827" pageHeight="1169" math="0" shadow="0">
      <root>
        <mxCell id="kbLj_D77HUOf-_SFRdOn-0"/>
        <mxCell id="kbLj_D77HUOf-_SFRdOn-1" parent="kbLj_D77HUOf-_SFRdOn-0"/>
        <mxCell id="JykpJmbPW6fw-SM1bkNA-19" value="" style="rounded=0;whiteSpace=wrap;html=1;strokeColor=#1A1A1A;fontColor=#1A1A1A;" vertex="1" parent="kbLj_D77HUOf-_SFRdOn-1">
          <mxGeometry x="70" y="200" width="590" height="250" as="geometry"/>
        </mxCell>
        <mxCell id="JykpJmbPW6fw-SM1bkNA-0" value="[[prototype]]" style="edgeStyle=orthogonalEdgeStyle;rounded=0;orthogonalLoop=1;jettySize=auto;html=1;exitX=0.5;exitY=0;exitDx=0;exitDy=0;entryX=0.5;entryY=1;entryDx=0;entryDy=0;dashed=1;" edge="1" parent="kbLj_D77HUOf-_SFRdOn-1" source="JykpJmbPW6fw-SM1bkNA-1" target="JykpJmbPW6fw-SM1bkNA-3">
          <mxGeometry relative="1" as="geometry"/>
        </mxCell>
        <mxCell id="JykpJmbPW6fw-SM1bkNA-1" value="[1，2，3]" style="rounded=1;whiteSpace=wrap;html=1;" vertex="1" parent="kbLj_D77HUOf-_SFRdOn-1">
          <mxGeometry x="120" y="380" width="120" height="60" as="geometry"/>
        </mxCell>
        <mxCell id="JykpJmbPW6fw-SM1bkNA-2" value="[[prototyoe]]" style="edgeStyle=orthogonalEdgeStyle;rounded=0;orthogonalLoop=1;jettySize=auto;html=1;exitX=0.5;exitY=0;exitDx=0;exitDy=0;entryX=0;entryY=0.5;entryDx=0;entryDy=0;dashed=1;" edge="1" parent="kbLj_D77HUOf-_SFRdOn-1" source="JykpJmbPW6fw-SM1bkNA-3" target="JykpJmbPW6fw-SM1bkNA-6">
          <mxGeometry relative="1" as="geometry"/>
        </mxCell>
        <mxCell id="JykpJmbPW6fw-SM1bkNA-3" value="slice: function&lt;br&gt;other: array methods" style="rounded=1;whiteSpace=wrap;html=1;" vertex="1" parent="kbLj_D77HUOf-_SFRdOn-1">
          <mxGeometry x="120" y="260" width="120" height="60" as="geometry"/>
        </mxCell>
        <mxCell id="JykpJmbPW6fw-SM1bkNA-4" value="Array prototype" style="text;html=1;resizable=0;points=[];autosize=1;align=left;verticalAlign=top;spacingTop=-4;" vertex="1" parent="kbLj_D77HUOf-_SFRdOn-1">
          <mxGeometry x="70" y="230" width="100" height="20" as="geometry"/>
        </mxCell>
        <mxCell id="JykpJmbPW6fw-SM1bkNA-5" value="[[prototype]]" style="edgeStyle=orthogonalEdgeStyle;rounded=0;orthogonalLoop=1;jettySize=auto;html=1;exitX=0.5;exitY=0;exitDx=0;exitDy=0;entryX=0.367;entryY=1.15;entryDx=0;entryDy=0;entryPerimeter=0;dashed=1;" edge="1" parent="kbLj_D77HUOf-_SFRdOn-1" source="JykpJmbPW6fw-SM1bkNA-6" target="JykpJmbPW6fw-SM1bkNA-7">
          <mxGeometry relative="1" as="geometry"/>
        </mxCell>
        <mxCell id="JykpJmbPW6fw-SM1bkNA-6" value="toString: function&lt;br&gt;other: array methods" style="rounded=1;whiteSpace=wrap;html=1;" vertex="1" parent="kbLj_D77HUOf-_SFRdOn-1">
          <mxGeometry x="320" y="120" width="120" height="60" as="geometry"/>
        </mxCell>
        <mxCell id="JykpJmbPW6fw-SM1bkNA-7" value="null" style="text;html=1;resizable=0;points=[];autosize=1;align=left;verticalAlign=top;spacingTop=-4;" vertex="1" parent="kbLj_D77HUOf-_SFRdOn-1">
          <mxGeometry x="369" y="47" width="30" height="20" as="geometry"/>
        </mxCell>
        <mxCell id="JykpJmbPW6fw-SM1bkNA-8" value="Object prototype" style="text;html=1;resizable=0;points=[];autosize=1;align=left;verticalAlign=top;spacingTop=-4;" vertex="1" parent="kbLj_D77HUOf-_SFRdOn-1">
          <mxGeometry x="269" y="100" width="100" height="20" as="geometry"/>
        </mxCell>
        <mxCell id="JykpJmbPW6fw-SM1bkNA-9" value="[[prototype]]" style="edgeStyle=orthogonalEdgeStyle;rounded=0;orthogonalLoop=1;jettySize=auto;html=1;exitX=0.5;exitY=0;exitDx=0;exitDy=0;entryX=0.5;entryY=1;entryDx=0;entryDy=0;dashed=1;" edge="1" parent="kbLj_D77HUOf-_SFRdOn-1" source="JykpJmbPW6fw-SM1bkNA-10" target="JykpJmbPW6fw-SM1bkNA-12">
          <mxGeometry relative="1" as="geometry"/>
        </mxCell>
        <mxCell id="JykpJmbPW6fw-SM1bkNA-10" value="function f(arg) {}" style="rounded=1;whiteSpace=wrap;html=1;" vertex="1" parent="kbLj_D77HUOf-_SFRdOn-1">
          <mxGeometry x="320" y="380" width="120" height="60" as="geometry"/>
        </mxCell>
        <mxCell id="JykpJmbPW6fw-SM1bkNA-11" value="[[prototype]]" style="edgeStyle=orthogonalEdgeStyle;rounded=0;orthogonalLoop=1;jettySize=auto;html=1;exitX=0.5;exitY=0;exitDx=0;exitDy=0;entryX=0.5;entryY=1;entryDx=0;entryDy=0;dashed=1;" edge="1" parent="kbLj_D77HUOf-_SFRdOn-1" source="JykpJmbPW6fw-SM1bkNA-12" target="JykpJmbPW6fw-SM1bkNA-6">
          <mxGeometry relative="1" as="geometry"/>
        </mxCell>
        <mxCell id="JykpJmbPW6fw-SM1bkNA-12" value="call: function&lt;br&gt;other: array methods" style="rounded=1;whiteSpace=wrap;html=1;" vertex="1" parent="kbLj_D77HUOf-_SFRdOn-1">
          <mxGeometry x="320" y="260" width="120" height="60" as="geometry"/>
        </mxCell>
        <mxCell id="JykpJmbPW6fw-SM1bkNA-13" value="Function prototype" style="text;html=1;resizable=0;points=[];autosize=1;align=left;verticalAlign=top;spacingTop=-4;" vertex="1" parent="kbLj_D77HUOf-_SFRdOn-1">
          <mxGeometry x="270" y="230" width="110" height="20" as="geometry"/>
        </mxCell>
        <mxCell id="JykpJmbPW6fw-SM1bkNA-14" value="[[prototype]]" style="edgeStyle=orthogonalEdgeStyle;rounded=0;orthogonalLoop=1;jettySize=auto;html=1;exitX=0.5;exitY=0;exitDx=0;exitDy=0;entryX=0.5;entryY=1;entryDx=0;entryDy=0;dashed=1;" edge="1" parent="kbLj_D77HUOf-_SFRdOn-1" source="JykpJmbPW6fw-SM1bkNA-15" target="JykpJmbPW6fw-SM1bkNA-17">
          <mxGeometry relative="1" as="geometry"/>
        </mxCell>
        <mxCell id="JykpJmbPW6fw-SM1bkNA-15" value="5" style="rounded=1;whiteSpace=wrap;html=1;" vertex="1" parent="kbLj_D77HUOf-_SFRdOn-1">
          <mxGeometry x="520" y="380" width="120" height="60" as="geometry"/>
        </mxCell>
        <mxCell id="JykpJmbPW6fw-SM1bkNA-16" value="[[prototype]]" style="edgeStyle=orthogonalEdgeStyle;rounded=0;orthogonalLoop=1;jettySize=auto;html=1;exitX=0.5;exitY=0;exitDx=0;exitDy=0;entryX=1;entryY=0.5;entryDx=0;entryDy=0;dashed=1;" edge="1" parent="kbLj_D77HUOf-_SFRdOn-1" source="JykpJmbPW6fw-SM1bkNA-17" target="JykpJmbPW6fw-SM1bkNA-6">
          <mxGeometry relative="1" as="geometry"/>
        </mxCell>
        <mxCell id="JykpJmbPW6fw-SM1bkNA-17" value="to Fixed: function&lt;br&gt;other: array methods" style="rounded=1;whiteSpace=wrap;html=1;" vertex="1" parent="kbLj_D77HUOf-_SFRdOn-1">
          <mxGeometry x="520" y="260" width="120" height="60" as="geometry"/>
        </mxCell>
        <mxCell id="JykpJmbPW6fw-SM1bkNA-18" value="Number prototype" style="text;html=1;resizable=0;points=[];autosize=1;align=left;verticalAlign=top;spacingTop=-4;" vertex="1" parent="kbLj_D77HUOf-_SFRdOn-1">
          <mxGeometry x="470" y="230" width="110" height="20" as="geometry"/>
        </mxCell>
        <mxCell id="JykpJmbPW6fw-SM1bkNA-20" value="Object" style="text;html=1;resizable=0;points=[];autosize=1;align=left;verticalAlign=top;spacingTop=-4;fontColor=#1A1A1A;" vertex="1" parent="kbLj_D77HUOf-_SFRdOn-1">
          <mxGeometry x="70" y="170" width="50" height="20" as="geometry"/>
        </mxCell>
      </root>
    </mxGraphModel>
  </diagram>
</mxfile>
